<?xml version="1.0" encoding="utf-8"?>
<!-- Generator: Adobe Illustrator 18.0.0, SVG Export Plug-In . SVG Version: 6.00 Build 0)  -->
<!DOCTYPE svg PUBLIC "-//W3C//DTD SVG 1.1//EN" "http://www.w3.org/Graphics/SVG/1.1/DTD/svg11.dtd">
<svg version="1.1" xmlns="http://www.w3.org/2000/svg" xmlns:xlink="http://www.w3.org/1999/xlink" x="0px" y="0px"
	 viewBox="0 0 1000 1000" enable-background="new 0 0 1000 1000" xml:space="preserve">
<g id="Layer_1">
</g>
<g id="Layer_2">
	<g>
		<path fill="#8E191C" d="M491.6,383.4V418h-2.7c-1.3-9.3-4.3-15.8-9-19.7c-4.7-3.8-11.6-5.7-20.8-5.7h-22.8v112.5
			c0,5,0.4,8.9,1.2,11.7c0.8,2.9,1.9,5,3.3,6.4c1.4,1.4,3.2,2.3,5.3,2.7c2.1,0.4,4.6,0.6,7.5,0.6h5.5v4h-68.7v-4h5.7
			c2.9,0,5.4-0.2,7.5-0.6c2.1-0.4,3.9-1.4,5.3-2.8c1.4-1.5,2.5-3.6,3.3-6.4c0.8-2.8,1.2-6.6,1.2-11.5V392.6H394
			c-4.9,0-9.2,0.4-12.9,1.1c-3.7,0.7-7,2-9.7,3.9c-2.7,1.9-4.9,4.5-6.5,7.8c-1.6,3.3-2.6,7.5-2.9,12.7h-4.5v-34.6H491.6z"/>
	</g>
	<g>
		<path fill="#8E191C" d="M621.7,530.6L553,406.9v98.3c0,5.1,0.4,9,1.3,11.9c0.8,2.9,2.1,5,3.7,6.4c1.6,1.4,3.6,2.3,6,2.6
			c2.4,0.3,5,0.5,8,0.5h6.3v4h-61.9v-4h6.3c3.1,0,5.9-0.2,8.2-0.6c2.3-0.4,4.3-1.3,5.9-2.8c1.6-1.5,2.7-3.6,3.5-6.5
			c0.8-2.9,1.2-6.7,1.2-11.6V409c0-3.5-0.2-6.5-0.6-9.1c-0.4-2.6-1.4-4.9-3-6.7c-1.6-1.8-4.1-3.2-7.4-4.2c-3.3-1-8-1.5-14-1.5v-4
			h50.3l64.6,115.1l63.5-115.1h50.3v4H739c-3.3,0-6.1,0.2-8.4,0.6c-2.4,0.4-4.3,1.4-5.9,2.8c-1.6,1.5-2.7,3.6-3.5,6.5
			c-0.8,2.9-1.2,6.7-1.2,11.6v96.2c0,5.1,0.4,9,1.3,11.9c0.8,2.9,2.1,5,3.7,6.4c1.6,1.4,3.6,2.3,6,2.6c2.4,0.3,5,0.5,8,0.5h6.1v4
			h-75.6v-4h6.3c3.1,0,5.9-0.2,8.2-0.6c2.4-0.4,4.3-1.4,6-2.8c1.6-1.5,2.8-3.6,3.6-6.4c0.8-2.8,1.2-6.6,1.2-11.5v-98.3l-68.5,123.7
			H621.7z"/>
	</g>
	<g>
		<path fill="#8E191C" d="M814.2,461.8v42.7c0,9.4,1.2,15.2,3.6,17.3c3.3,3.1,8.1,4.7,14.5,4.7h6.6v4h-73.4v-4h6.4
			c7.2,0,12.3-2,15.5-6c1.8-2.4,2.6-7.7,2.6-16v-95c0-9.2-1.1-14.9-3.4-17.2c-3.4-3.2-8.3-4.9-14.7-4.9h-6.4v-4h62.8
			c15.1,0,27.2,1.4,36.2,4.2c4.4,1.3,8.5,3.1,12.4,5.4c3.8,2.3,7.2,5.1,10,8.3c2.8,3.2,5.1,6.7,6.7,10.5c1.6,3.8,2.5,8,2.5,12.4
			c0,5.9-1.2,11.4-3.6,16.4c-2.4,5-5.9,9.2-10.4,12.8c-4.5,3.6-10.1,6.3-16.6,8.3c-6.5,2-14,3-22.5,3
			C834.9,464.7,825.3,463.7,814.2,461.8z M814.2,455.4c4.5,0.8,8.5,1.3,11.9,1.7c3.4,0.4,6.3,0.6,8.9,0.6c4.4,0,8.6-0.8,12.5-2.3
			c3.9-1.6,7.3-3.7,10.3-6.5s5.3-6.1,7-10c1.7-3.9,2.5-8.1,2.5-12.6c0-5.4-0.9-10.2-2.8-14.4c-1.9-4.2-4.5-7.8-7.7-10.7
			c-3.3-2.9-7.1-5.1-11.5-6.6c-4.4-1.5-9.2-2.3-14.3-2.3c-4.3,0-9.8,0.6-16.6,1.9V455.4z"/>
	</g>
	<g>
		<path fill="#3A3B3B" d="M433.2,581.8c0,0.1,0,0.2-0.1,0.3c-0.1,0.1-0.1,0.1-0.3,0.2c-0.1,0-0.3,0.1-0.5,0.1c-0.2,0-0.5,0-0.8,0
			c-0.3,0-0.6,0-0.8,0c-0.2,0-0.4-0.1-0.5-0.1c-0.1,0-0.2-0.1-0.3-0.2c-0.1-0.1-0.1-0.2-0.1-0.3v-22.2h0l-9,22.3
			c0,0.1-0.1,0.2-0.2,0.2c-0.1,0.1-0.2,0.1-0.3,0.2c-0.1,0-0.3,0.1-0.5,0.1c-0.2,0-0.4,0-0.7,0c-0.3,0-0.5,0-0.7,0
			c-0.2,0-0.4-0.1-0.5-0.1c-0.1,0-0.2-0.1-0.3-0.2c-0.1-0.1-0.1-0.1-0.1-0.2l-8.6-22.3h0v22.2c0,0.1,0,0.2-0.1,0.3
			c-0.1,0.1-0.1,0.1-0.3,0.2s-0.3,0.1-0.5,0.1c-0.2,0-0.5,0-0.8,0c-0.3,0-0.6,0-0.8,0c-0.2,0-0.4-0.1-0.5-0.1
			c-0.1,0-0.2-0.1-0.3-0.2c0-0.1-0.1-0.2-0.1-0.3v-23.4c0-0.5,0.1-0.9,0.4-1.2s0.6-0.4,1-0.4h2.1c0.4,0,0.8,0,1.1,0.1
			c0.3,0.1,0.6,0.2,0.8,0.4c0.2,0.2,0.4,0.4,0.6,0.6c0.2,0.3,0.3,0.6,0.4,0.9l7.3,18.4h0.1L427,559c0.1-0.4,0.3-0.7,0.5-1
			c0.2-0.3,0.4-0.5,0.6-0.7c0.2-0.2,0.4-0.3,0.7-0.4c0.3-0.1,0.5-0.1,0.9-0.1h2.2c0.2,0,0.4,0,0.6,0.1c0.2,0.1,0.3,0.1,0.5,0.3
			c0.1,0.1,0.2,0.3,0.3,0.5c0.1,0.2,0.1,0.4,0.1,0.7V581.8z"/>
		<path fill="#3A3B3B" d="M468.2,581.8c0,0.2-0.1,0.3-0.2,0.4c-0.1,0.1-0.3,0.1-0.4,0.2c-0.2,0-0.5,0.1-0.8,0.1
			c-0.3,0-0.6,0-0.8-0.1c-0.2,0-0.4-0.1-0.4-0.2c-0.1-0.1-0.1-0.2-0.1-0.4V580c-0.8,0.8-1.6,1.5-2.6,1.9c-1,0.5-2,0.7-3,0.7
			c-0.9,0-1.8-0.1-2.5-0.4c-0.8-0.2-1.4-0.6-1.9-1.1c-0.5-0.5-0.9-1-1.2-1.7c-0.3-0.7-0.4-1.4-0.4-2.3c0-1,0.2-1.9,0.6-2.6
			c0.4-0.7,1-1.3,1.8-1.8c0.8-0.5,1.7-0.8,2.8-1.1c1.1-0.2,2.3-0.4,3.7-0.4h2.4V570c0-0.7-0.1-1.3-0.2-1.8c-0.1-0.5-0.4-1-0.7-1.3
			c-0.3-0.3-0.7-0.6-1.2-0.8c-0.5-0.2-1.1-0.3-1.9-0.3c-0.8,0-1.5,0.1-2.2,0.3c-0.6,0.2-1.2,0.4-1.7,0.6s-0.9,0.4-1.2,0.6
			c-0.3,0.2-0.6,0.3-0.7,0.3c-0.1,0-0.2,0-0.3-0.1c-0.1-0.1-0.1-0.1-0.2-0.2c-0.1-0.1-0.1-0.2-0.1-0.4c0-0.2,0-0.3,0-0.5
			c0-0.3,0-0.6,0.1-0.8c0-0.2,0.2-0.4,0.3-0.5c0.2-0.2,0.5-0.4,0.9-0.6c0.4-0.2,0.9-0.4,1.5-0.6s1.2-0.3,1.8-0.5
			c0.7-0.1,1.3-0.2,2-0.2c1.3,0,2.4,0.1,3.2,0.4c0.9,0.3,1.6,0.7,2.2,1.3c0.6,0.6,1,1.2,1.2,2.1c0.2,0.8,0.4,1.8,0.4,2.9V581.8z
			 M465,573.7h-2.8c-0.9,0-1.7,0.1-2.3,0.2c-0.7,0.2-1.2,0.4-1.6,0.7c-0.4,0.3-0.8,0.6-1,1.1c-0.2,0.4-0.3,0.9-0.3,1.4
			c0,0.9,0.3,1.6,0.9,2.2c0.6,0.5,1.4,0.8,2.4,0.8c0.9,0,1.6-0.2,2.4-0.6c0.7-0.4,1.5-1.1,2.3-2V573.7z"/>
		<path fill="#3A3B3B" d="M504.8,581.8c0,0.1,0,0.2-0.1,0.3c-0.1,0.1-0.1,0.1-0.3,0.2c-0.1,0.1-0.3,0.1-0.5,0.1c-0.2,0-0.5,0-0.8,0
			c-0.3,0-0.6,0-0.8,0c-0.2,0-0.4-0.1-0.5-0.1c-0.1-0.1-0.2-0.1-0.3-0.2c-0.1-0.1-0.1-0.2-0.1-0.3v-10.4c0-1-0.1-1.8-0.2-2.4
			c-0.2-0.6-0.4-1.1-0.7-1.6c-0.3-0.4-0.7-0.8-1.2-1s-1-0.4-1.7-0.4c-0.8,0-1.6,0.3-2.4,0.9c-0.8,0.6-1.7,1.4-2.6,2.5v12.4
			c0,0.1,0,0.2-0.1,0.3c-0.1,0.1-0.1,0.1-0.3,0.2c-0.1,0.1-0.3,0.1-0.5,0.1c-0.2,0-0.5,0-0.8,0c-0.3,0-0.6,0-0.8,0
			c-0.2,0-0.4-0.1-0.5-0.1c-0.1-0.1-0.2-0.1-0.3-0.2c0-0.1-0.1-0.2-0.1-0.3v-17.7c0-0.1,0-0.2,0.1-0.3c0-0.1,0.1-0.1,0.2-0.2
			c0.1-0.1,0.3-0.1,0.5-0.1c0.2,0,0.4,0,0.7,0c0.3,0,0.5,0,0.7,0c0.2,0,0.3,0.1,0.4,0.1c0.1,0.1,0.2,0.1,0.2,0.2
			c0,0.1,0.1,0.2,0.1,0.3v2.3c1-1.1,2-1.9,3-2.4c1-0.5,2-0.8,3-0.8c1.2,0,2.2,0.2,3,0.6c0.8,0.4,1.5,0.9,2,1.6
			c0.5,0.7,0.9,1.5,1.1,2.4s0.3,2,0.3,3.2V581.8z"/>
		<path fill="#3A3B3B" d="M541.1,581.8c0,0.1,0,0.2-0.1,0.3c0,0.1-0.1,0.1-0.2,0.2c-0.1,0.1-0.3,0.1-0.5,0.1s-0.4,0-0.7,0
			c-0.3,0-0.5,0-0.7,0s-0.3-0.1-0.5-0.1c-0.1-0.1-0.2-0.1-0.2-0.2c0-0.1-0.1-0.2-0.1-0.3v-2.3c-1,1.1-2,1.9-3,2.4
			c-1,0.5-2,0.8-3,0.8c-1.2,0-2.2-0.2-3-0.6c-0.8-0.4-1.5-0.9-2-1.6c-0.5-0.7-0.9-1.5-1.1-2.4c-0.2-0.9-0.3-2-0.3-3.3v-10.7
			c0-0.1,0-0.2,0.1-0.3s0.1-0.1,0.3-0.2c0.1-0.1,0.3-0.1,0.5-0.1c0.2,0,0.5,0,0.8,0c0.3,0,0.6,0,0.8,0c0.2,0,0.4,0.1,0.5,0.1
			c0.1,0.1,0.2,0.1,0.3,0.2c0.1,0.1,0.1,0.2,0.1,0.3v10.3c0,1,0.1,1.9,0.2,2.5s0.4,1.2,0.7,1.6c0.3,0.4,0.7,0.8,1.2,1
			c0.5,0.2,1,0.4,1.7,0.4c0.8,0,1.6-0.3,2.4-0.9c0.8-0.6,1.7-1.4,2.6-2.5v-12.4c0-0.1,0-0.2,0.1-0.3s0.1-0.1,0.3-0.2
			c0.1-0.1,0.3-0.1,0.5-0.1c0.2,0,0.5,0,0.8,0c0.3,0,0.6,0,0.8,0c0.2,0,0.4,0.1,0.5,0.1c0.1,0.1,0.2,0.1,0.3,0.2
			c0.1,0.1,0.1,0.2,0.1,0.3V581.8z"/>
		<path fill="#3A3B3B" d="M572.1,556.8c0,0.2,0,0.5,0,0.6c0,0.2-0.1,0.3-0.1,0.4c0,0.1-0.1,0.2-0.1,0.2s-0.1,0-0.2,0
			c-0.1,0-0.2,0-0.3-0.1c-0.1-0.1-0.3-0.1-0.5-0.2s-0.4-0.1-0.7-0.2c-0.3-0.1-0.6-0.1-0.9-0.1c-0.5,0-0.9,0.1-1.2,0.2
			c-0.3,0.2-0.6,0.4-0.8,0.7c-0.2,0.3-0.4,0.8-0.5,1.3c-0.1,0.5-0.1,1.2-0.1,1.9v1.9h4c0.1,0,0.2,0,0.3,0.1s0.1,0.1,0.2,0.2
			c0.1,0.1,0.1,0.3,0.1,0.4c0,0.2,0.1,0.4,0.1,0.6c0,0.5-0.1,0.8-0.2,1c-0.1,0.2-0.3,0.3-0.5,0.3h-4v15.5c0,0.1,0,0.2-0.1,0.3
			c-0.1,0.1-0.1,0.1-0.3,0.2c-0.1,0.1-0.3,0.1-0.5,0.1c-0.2,0-0.5,0-0.8,0c-0.3,0-0.6,0-0.8,0s-0.4-0.1-0.5-0.1
			c-0.1-0.1-0.2-0.1-0.3-0.2c-0.1-0.1-0.1-0.2-0.1-0.3v-15.5h-2.5c-0.2,0-0.4-0.1-0.5-0.3c-0.1-0.2-0.2-0.6-0.2-1c0-0.2,0-0.5,0-0.6
			c0-0.2,0.1-0.3,0.1-0.4c0.1-0.1,0.1-0.2,0.2-0.2c0.1,0,0.2-0.1,0.3-0.1h2.5v-1.8c0-1.2,0.1-2.3,0.3-3.2c0.2-0.9,0.6-1.6,1.1-2.2
			c0.5-0.6,1.1-1,1.8-1.2c0.7-0.3,1.6-0.4,2.5-0.4c0.5,0,0.9,0,1.3,0.1c0.4,0.1,0.8,0.2,1,0.3c0.2,0.1,0.4,0.2,0.5,0.3
			c0.1,0.1,0.1,0.2,0.2,0.3c0.1,0.1,0.1,0.3,0.1,0.5C572.1,556.4,572.1,556.6,572.1,556.8z"/>
		<path fill="#3A3B3B" d="M602.6,581.8c0,0.2-0.1,0.3-0.2,0.4c-0.1,0.1-0.3,0.1-0.4,0.2c-0.2,0-0.5,0.1-0.8,0.1
			c-0.3,0-0.6,0-0.8-0.1c-0.2,0-0.4-0.1-0.4-0.2c-0.1-0.1-0.1-0.2-0.1-0.4V580c-0.8,0.8-1.6,1.5-2.6,1.9c-1,0.5-2,0.7-3,0.7
			c-0.9,0-1.8-0.1-2.5-0.4c-0.8-0.2-1.4-0.6-1.9-1.1c-0.5-0.5-0.9-1-1.2-1.7c-0.3-0.7-0.4-1.4-0.4-2.3c0-1,0.2-1.9,0.6-2.6
			c0.4-0.7,1-1.3,1.8-1.8c0.8-0.5,1.7-0.8,2.8-1.1c1.1-0.2,2.3-0.4,3.7-0.4h2.4V570c0-0.7-0.1-1.3-0.2-1.8c-0.1-0.5-0.4-1-0.7-1.3
			c-0.3-0.3-0.7-0.6-1.2-0.8c-0.5-0.2-1.1-0.3-1.9-0.3c-0.8,0-1.5,0.1-2.2,0.3c-0.6,0.2-1.2,0.4-1.7,0.6c-0.5,0.2-0.9,0.4-1.2,0.6
			c-0.3,0.2-0.6,0.3-0.7,0.3c-0.1,0-0.2,0-0.3-0.1c-0.1-0.1-0.1-0.1-0.2-0.2c-0.1-0.1-0.1-0.2-0.1-0.4s0-0.3,0-0.5
			c0-0.3,0-0.6,0.1-0.8s0.2-0.4,0.3-0.5c0.2-0.2,0.5-0.4,0.9-0.6c0.4-0.2,0.9-0.4,1.5-0.6c0.6-0.2,1.2-0.3,1.8-0.5
			c0.7-0.1,1.3-0.2,2-0.2c1.3,0,2.4,0.1,3.2,0.4c0.9,0.3,1.6,0.7,2.2,1.3c0.6,0.6,1,1.2,1.2,2.1c0.2,0.8,0.4,1.8,0.4,2.9V581.8z
			 M599.4,573.7h-2.8c-0.9,0-1.7,0.1-2.3,0.2c-0.7,0.2-1.2,0.4-1.6,0.7c-0.4,0.3-0.8,0.6-1,1.1c-0.2,0.4-0.3,0.9-0.3,1.4
			c0,0.9,0.3,1.6,0.9,2.2c0.6,0.5,1.4,0.8,2.4,0.8c0.9,0,1.6-0.2,2.4-0.6c0.7-0.4,1.5-1.1,2.3-2V573.7z"/>
		<path fill="#3A3B3B" d="M636.6,579.1c0,0.2,0,0.4,0,0.6c0,0.2,0,0.3-0.1,0.4s-0.1,0.2-0.1,0.3c0,0.1-0.2,0.2-0.3,0.4
			s-0.4,0.4-0.8,0.6c-0.4,0.2-0.8,0.5-1.3,0.6c-0.5,0.2-1,0.3-1.6,0.5s-1.2,0.2-1.8,0.2c-1.3,0-2.4-0.2-3.4-0.6
			c-1-0.4-1.8-1-2.5-1.8c-0.7-0.8-1.2-1.8-1.5-3c-0.3-1.2-0.5-2.5-0.5-4.1c0-1.7,0.2-3.2,0.6-4.5c0.4-1.3,1-2.3,1.7-3.1
			c0.7-0.8,1.6-1.4,2.6-1.8c1-0.4,2.1-0.6,3.3-0.6c0.6,0,1.1,0.1,1.6,0.2c0.5,0.1,1,0.2,1.5,0.4c0.4,0.2,0.8,0.4,1.2,0.6
			c0.3,0.2,0.6,0.4,0.8,0.6c0.2,0.2,0.3,0.3,0.3,0.4c0.1,0.1,0.1,0.2,0.1,0.3c0,0.1,0.1,0.3,0.1,0.4c0,0.2,0,0.4,0,0.6
			c0,0.5-0.1,0.9-0.2,1.1c-0.1,0.2-0.3,0.3-0.4,0.3c-0.2,0-0.4-0.1-0.7-0.3c-0.3-0.2-0.6-0.5-1-0.7c-0.4-0.3-0.9-0.5-1.4-0.7
			c-0.6-0.2-1.2-0.3-2-0.3c-1.6,0-2.8,0.6-3.6,1.8c-0.8,1.2-1.2,2.9-1.2,5.2c0,1.1,0.1,2.1,0.3,3c0.2,0.9,0.5,1.6,1,2.2
			c0.4,0.6,0.9,1,1.5,1.3c0.6,0.3,1.3,0.4,2.1,0.4c0.7,0,1.4-0.1,2-0.4c0.6-0.2,1.1-0.5,1.5-0.8c0.4-0.3,0.8-0.5,1-0.8
			c0.3-0.2,0.5-0.3,0.7-0.3c0.1,0,0.2,0,0.2,0.1c0.1,0.1,0.1,0.1,0.2,0.3c0,0.1,0.1,0.3,0.1,0.5
			C636.6,578.6,636.6,578.8,636.6,579.1z"/>
		<path fill="#3A3B3B" d="M665.4,580.5c0,0.4,0,0.7-0.1,0.9c-0.1,0.2-0.1,0.4-0.2,0.5c-0.1,0.1-0.3,0.2-0.5,0.3
			c-0.2,0.1-0.5,0.2-0.7,0.2c-0.3,0.1-0.6,0.1-0.9,0.1c-0.3,0-0.6,0.1-0.9,0.1c-0.9,0-1.7-0.1-2.4-0.4c-0.7-0.2-1.2-0.6-1.6-1.1
			c-0.4-0.5-0.7-1.1-0.9-1.9c-0.2-0.8-0.3-1.6-0.3-2.7v-10.3h-2.5c-0.2,0-0.4-0.1-0.5-0.3c-0.1-0.2-0.2-0.6-0.2-1c0-0.2,0-0.5,0-0.6
			c0-0.2,0.1-0.3,0.1-0.4s0.1-0.2,0.2-0.2s0.2-0.1,0.3-0.1h2.5v-4.2c0-0.1,0-0.2,0.1-0.3s0.1-0.1,0.3-0.2c0.1-0.1,0.3-0.1,0.5-0.1
			c0.2,0,0.5,0,0.8,0c0.3,0,0.6,0,0.8,0c0.2,0,0.4,0.1,0.5,0.1c0.1,0.1,0.2,0.1,0.3,0.2s0.1,0.2,0.1,0.3v4.2h4.5
			c0.1,0,0.2,0,0.3,0.1c0.1,0,0.1,0.1,0.2,0.2c0.1,0.1,0.1,0.3,0.1,0.4c0,0.2,0,0.4,0,0.6c0,0.5-0.1,0.8-0.2,1
			c-0.1,0.2-0.3,0.3-0.5,0.3h-4.5v9.9c0,1.2,0.2,2.1,0.5,2.8c0.4,0.6,1,0.9,1.9,0.9c0.3,0,0.6,0,0.8-0.1c0.2-0.1,0.4-0.1,0.6-0.2
			c0.2-0.1,0.3-0.1,0.5-0.2c0.1-0.1,0.2-0.1,0.4-0.1c0.1,0,0.1,0,0.2,0c0.1,0,0.1,0.1,0.1,0.2c0,0.1,0.1,0.2,0.1,0.4
			C665.4,580.1,665.4,580.3,665.4,580.5z"/>
		<path fill="#3A3B3B" d="M700.2,581.8c0,0.1,0,0.2-0.1,0.3c0,0.1-0.1,0.1-0.2,0.2c-0.1,0.1-0.3,0.1-0.5,0.1s-0.4,0-0.7,0
			c-0.3,0-0.5,0-0.7,0s-0.3-0.1-0.5-0.1c-0.1-0.1-0.2-0.1-0.2-0.2c0-0.1-0.1-0.2-0.1-0.3v-2.3c-1,1.1-2,1.9-3,2.4
			c-1,0.5-2,0.8-3,0.8c-1.2,0-2.2-0.2-3-0.6c-0.8-0.4-1.5-0.9-2-1.6c-0.5-0.7-0.9-1.5-1.1-2.4c-0.2-0.9-0.3-2-0.3-3.3v-10.7
			c0-0.1,0-0.2,0.1-0.3s0.1-0.1,0.3-0.2c0.1-0.1,0.3-0.1,0.5-0.1c0.2,0,0.5,0,0.8,0s0.6,0,0.8,0c0.2,0,0.4,0.1,0.5,0.1
			c0.1,0.1,0.2,0.1,0.3,0.2c0.1,0.1,0.1,0.2,0.1,0.3v10.3c0,1,0.1,1.9,0.2,2.5s0.4,1.2,0.7,1.6c0.3,0.4,0.7,0.8,1.2,1
			c0.5,0.2,1,0.4,1.7,0.4c0.8,0,1.6-0.3,2.4-0.9c0.8-0.6,1.7-1.4,2.6-2.5v-12.4c0-0.1,0-0.2,0.1-0.3s0.1-0.1,0.3-0.2
			c0.1-0.1,0.3-0.1,0.5-0.1c0.2,0,0.5,0,0.8,0c0.3,0,0.6,0,0.8,0c0.2,0,0.4,0.1,0.5,0.1c0.1,0.1,0.2,0.1,0.3,0.2
			c0.1,0.1,0.1,0.2,0.1,0.3V581.8z"/>
		<path fill="#3A3B3B" d="M731.8,565.3c0,0.3,0,0.5,0,0.7c0,0.2,0,0.4-0.1,0.5c0,0.1-0.1,0.2-0.1,0.3c-0.1,0.1-0.1,0.1-0.2,0.1
			c-0.1,0-0.2,0-0.4-0.1c-0.1-0.1-0.3-0.1-0.5-0.2c-0.2-0.1-0.4-0.1-0.6-0.2c-0.2-0.1-0.5-0.1-0.8-0.1c-0.3,0-0.6,0.1-1,0.2
			c-0.3,0.1-0.6,0.3-1,0.6c-0.3,0.3-0.7,0.7-1.1,1.2s-0.8,1.1-1.3,1.8v11.6c0,0.1,0,0.2-0.1,0.3c-0.1,0.1-0.1,0.1-0.3,0.2
			c-0.1,0.1-0.3,0.1-0.5,0.1c-0.2,0-0.5,0-0.8,0c-0.3,0-0.6,0-0.8,0c-0.2,0-0.4-0.1-0.5-0.1c-0.1-0.1-0.2-0.1-0.3-0.2
			c0-0.1-0.1-0.2-0.1-0.3v-17.7c0-0.1,0-0.2,0.1-0.3s0.1-0.1,0.2-0.2c0.1-0.1,0.3-0.1,0.5-0.1c0.2,0,0.4,0,0.7,0c0.3,0,0.5,0,0.7,0
			c0.2,0,0.3,0.1,0.4,0.1c0.1,0.1,0.2,0.1,0.2,0.2s0.1,0.2,0.1,0.3v2.6c0.5-0.7,0.9-1.3,1.4-1.7c0.4-0.4,0.8-0.8,1.2-1.1
			c0.4-0.3,0.8-0.4,1.1-0.5c0.4-0.1,0.7-0.1,1.1-0.1c0.2,0,0.4,0,0.6,0c0.2,0,0.4,0.1,0.7,0.1c0.2,0.1,0.5,0.1,0.6,0.2
			c0.2,0.1,0.3,0.1,0.4,0.2c0.1,0.1,0.1,0.1,0.2,0.2c0,0.1,0,0.1,0.1,0.2c0,0.1,0,0.2,0,0.4C731.8,564.7,731.8,565,731.8,565.3z"/>
		<path fill="#3A3B3B" d="M754.4,558.1c0,0.8-0.1,1.3-0.4,1.6c-0.3,0.3-0.8,0.4-1.6,0.4c-0.8,0-1.3-0.1-1.6-0.4
			c-0.3-0.3-0.4-0.8-0.4-1.5c0-0.8,0.1-1.3,0.4-1.6c0.3-0.3,0.8-0.4,1.6-0.4c0.8,0,1.3,0.1,1.6,0.4
			C754.3,556.9,754.4,557.4,754.4,558.1z M754.1,581.8c0,0.1,0,0.2-0.1,0.3c-0.1,0.1-0.1,0.1-0.3,0.2c-0.1,0.1-0.3,0.1-0.5,0.1
			c-0.2,0-0.5,0-0.8,0c-0.3,0-0.6,0-0.8,0c-0.2,0-0.4-0.1-0.5-0.1c-0.1-0.1-0.2-0.1-0.3-0.2c0-0.1-0.1-0.2-0.1-0.3v-17.7
			c0-0.1,0-0.2,0.1-0.3c0-0.1,0.1-0.1,0.3-0.2c0.1-0.1,0.3-0.1,0.5-0.1c0.2,0,0.5,0,0.8,0c0.3,0,0.6,0,0.8,0c0.2,0,0.4,0.1,0.5,0.1
			c0.1,0.1,0.2,0.1,0.3,0.2c0.1,0.1,0.1,0.2,0.1,0.3V581.8z"/>
		<path fill="#3A3B3B" d="M790.6,581.8c0,0.1,0,0.2-0.1,0.3c-0.1,0.1-0.1,0.1-0.3,0.2c-0.1,0.1-0.3,0.1-0.5,0.1c-0.2,0-0.5,0-0.8,0
			c-0.3,0-0.6,0-0.8,0c-0.2,0-0.4-0.1-0.5-0.1c-0.1-0.1-0.2-0.1-0.3-0.2c-0.1-0.1-0.1-0.2-0.1-0.3v-10.4c0-1-0.1-1.8-0.2-2.4
			c-0.2-0.6-0.4-1.1-0.7-1.6c-0.3-0.4-0.7-0.8-1.2-1c-0.5-0.2-1-0.4-1.7-0.4c-0.8,0-1.6,0.3-2.4,0.9s-1.7,1.4-2.6,2.5v12.4
			c0,0.1,0,0.2-0.1,0.3c-0.1,0.1-0.1,0.1-0.3,0.2c-0.1,0.1-0.3,0.1-0.5,0.1c-0.2,0-0.5,0-0.8,0c-0.3,0-0.6,0-0.8,0
			c-0.2,0-0.4-0.1-0.5-0.1c-0.1-0.1-0.2-0.1-0.3-0.2c0-0.1-0.1-0.2-0.1-0.3v-17.7c0-0.1,0-0.2,0.1-0.3s0.1-0.1,0.2-0.2
			c0.1-0.1,0.3-0.1,0.5-0.1c0.2,0,0.4,0,0.7,0c0.3,0,0.5,0,0.7,0c0.2,0,0.3,0.1,0.4,0.1c0.1,0.1,0.2,0.1,0.2,0.2s0.1,0.2,0.1,0.3
			v2.3c1-1.1,2-1.9,3-2.4c1-0.5,2-0.8,3-0.8c1.2,0,2.2,0.2,3,0.6c0.8,0.4,1.5,0.9,2,1.6c0.5,0.7,0.9,1.5,1.1,2.4s0.3,2,0.3,3.2
			V581.8z"/>
		<path fill="#3A3B3B" d="M826.6,564.9c0,0.5-0.1,0.8-0.2,1c-0.1,0.2-0.3,0.3-0.5,0.3h-2.5c0.5,0.5,0.8,1,1,1.6
			c0.2,0.6,0.3,1.2,0.3,1.8c0,1-0.2,1.9-0.5,2.7c-0.3,0.8-0.8,1.5-1.4,2c-0.6,0.5-1.3,1-2.2,1.2c-0.8,0.3-1.8,0.4-2.8,0.4
			c-0.7,0-1.4-0.1-2.1-0.3c-0.6-0.2-1.2-0.4-1.5-0.7c-0.2,0.2-0.4,0.5-0.6,0.8c-0.1,0.3-0.2,0.6-0.2,1c0,0.5,0.2,0.8,0.6,1.1
			c0.4,0.3,1,0.5,1.7,0.5l4.6,0.2c0.9,0,1.7,0.1,2.4,0.4c0.7,0.2,1.4,0.5,1.9,0.9c0.5,0.4,1,0.9,1.3,1.5c0.3,0.6,0.5,1.3,0.5,2
			c0,0.8-0.2,1.6-0.5,2.3c-0.3,0.7-0.9,1.4-1.6,1.9c-0.7,0.6-1.6,1-2.7,1.3c-1.1,0.3-2.4,0.5-3.9,0.5c-1.4,0-2.6-0.1-3.6-0.4
			c-1-0.2-1.8-0.6-2.5-1c-0.6-0.4-1.1-0.9-1.4-1.5c-0.3-0.6-0.4-1.2-0.4-1.9c0-0.4,0.1-0.9,0.2-1.3c0.1-0.4,0.3-0.8,0.5-1.2
			c0.2-0.4,0.5-0.7,0.8-1.1c0.3-0.3,0.7-0.7,1.1-1c-0.6-0.3-1.1-0.7-1.4-1.2s-0.5-1-0.5-1.6c0-0.8,0.2-1.5,0.5-2.1
			c0.3-0.6,0.7-1.2,1.2-1.7c-0.4-0.5-0.7-1-1-1.6c-0.2-0.6-0.4-1.3-0.4-2.2c0-1,0.2-1.9,0.5-2.7c0.3-0.8,0.8-1.5,1.4-2
			c0.6-0.6,1.3-1,2.2-1.3c0.8-0.3,1.8-0.4,2.8-0.4c0.5,0,1,0,1.5,0.1c0.5,0.1,0.9,0.1,1.3,0.2h5.3c0.2,0,0.4,0.1,0.5,0.3
			C826.6,564.1,826.6,564.5,826.6,564.9z M823.2,583.6c0-0.8-0.3-1.3-0.9-1.8c-0.6-0.4-1.5-0.6-2.5-0.7l-4.6-0.2
			c-0.4,0.3-0.8,0.6-1,0.9c-0.3,0.3-0.5,0.6-0.6,0.8c-0.2,0.3-0.3,0.5-0.3,0.8c-0.1,0.3-0.1,0.5-0.1,0.8c0,0.9,0.4,1.5,1.3,1.9
			c0.9,0.4,2.1,0.7,3.6,0.7c1,0,1.8-0.1,2.5-0.3c0.7-0.2,1.2-0.4,1.6-0.8c0.4-0.3,0.7-0.7,0.9-1.1
			C823.1,584.5,823.2,584,823.2,583.6z M821.5,569.6c0-1.2-0.3-2.1-1-2.8c-0.7-0.7-1.6-1-2.8-1c-0.6,0-1.2,0.1-1.6,0.3
			c-0.5,0.2-0.9,0.5-1.2,0.9c-0.3,0.4-0.5,0.8-0.7,1.3c-0.1,0.5-0.2,1-0.2,1.5c0,1.2,0.3,2.1,1,2.8s1.6,1,2.8,1
			c0.6,0,1.2-0.1,1.7-0.3c0.5-0.2,0.9-0.5,1.2-0.8c0.3-0.4,0.5-0.8,0.7-1.2C821.5,570.6,821.5,570.1,821.5,569.6z"/>
	</g>
	<g>
		<path fill="#5D1512" d="M893,545.6H360.2c-1.6,0-2.9-1.3-2.9-2.9l0,0c0-1.6,1.3-2.9,2.9-2.9H893c1.6,0,2.9,1.3,2.9,2.9l0,0
			C895.8,544.3,894.6,545.6,893,545.6z"/>
	</g>
	<g>
		<g>
			<defs>
				<circle id="SVGID_1_" cx="219.8" cy="471.8" r="113.8"/>
			</defs>
			<clipPath id="SVGID_2_">
				<use xlink:href="#SVGID_1_"  overflow="visible"/>
			</clipPath>
			<rect x="106" y="358" clip-path="url(#SVGID_2_)" fill="#861A1B" width="227.5" height="227.5"/>
			<circle clip-path="url(#SVGID_2_)" fill="#861A1B" cx="219.8" cy="471.8" r="113.8"/>
			<circle clip-path="url(#SVGID_2_)" fill="#871A1B" cx="219.8" cy="471.8" r="112.2"/>
			<circle clip-path="url(#SVGID_2_)" fill="#881A1C" cx="219.8" cy="471.8" r="110.6"/>
			<circle clip-path="url(#SVGID_2_)" fill="#891B1C" cx="219.8" cy="471.8" r="109"/>
			<circle clip-path="url(#SVGID_2_)" fill="#891B1C" cx="219.8" cy="471.8" r="107.4"/>
			<circle clip-path="url(#SVGID_2_)" fill="#8A1B1C" cx="219.8" cy="471.8" r="105.8"/>
			<circle clip-path="url(#SVGID_2_)" fill="#8B1B1D" cx="219.8" cy="471.8" r="104.2"/>
			<circle clip-path="url(#SVGID_2_)" fill="#8C1B1D" cx="219.8" cy="471.8" r="102.6"/>
			<circle clip-path="url(#SVGID_2_)" fill="#8D1B1D" cx="219.8" cy="471.8" r="101"/>
			<circle clip-path="url(#SVGID_2_)" fill="#8E1C1D" cx="219.8" cy="471.8" r="99.4"/>
			<circle clip-path="url(#SVGID_2_)" fill="#8E1C1D" cx="219.8" cy="471.8" r="97.8"/>
			<circle clip-path="url(#SVGID_2_)" fill="#8F1C1E" cx="219.8" cy="471.8" r="96.2"/>
			<circle clip-path="url(#SVGID_2_)" fill="#901C1E" cx="219.8" cy="471.8" r="94.6"/>
			<circle clip-path="url(#SVGID_2_)" fill="#911C1E" cx="219.8" cy="471.8" r="93"/>
			<circle clip-path="url(#SVGID_2_)" fill="#921C1E" cx="219.8" cy="471.8" r="91.4"/>
			<circle clip-path="url(#SVGID_2_)" fill="#931C1F" cx="219.8" cy="471.8" r="89.8"/>
			<circle clip-path="url(#SVGID_2_)" fill="#931D1F" cx="219.8" cy="471.8" r="88.2"/>
			<circle clip-path="url(#SVGID_2_)" fill="#941D1F" cx="219.8" cy="471.8" r="86.6"/>
			<circle clip-path="url(#SVGID_2_)" fill="#951D1F" cx="219.8" cy="471.8" r="85"/>
			<circle clip-path="url(#SVGID_2_)" fill="#961D1F" cx="219.8" cy="471.8" r="83.4"/>
			<circle clip-path="url(#SVGID_2_)" fill="#971D20" cx="219.8" cy="471.8" r="81.8"/>
			<circle clip-path="url(#SVGID_2_)" fill="#981D20" cx="219.8" cy="471.8" r="80.2"/>
			<circle clip-path="url(#SVGID_2_)" fill="#981D20" cx="219.8" cy="471.8" r="78.6"/>
			<circle clip-path="url(#SVGID_2_)" fill="#991D20" cx="219.8" cy="471.8" r="77"/>
			<circle clip-path="url(#SVGID_2_)" fill="#9A1E21" cx="219.8" cy="471.8" r="75.4"/>
			<circle clip-path="url(#SVGID_2_)" fill="#9B1E21" cx="219.8" cy="471.8" r="73.8"/>
			<circle clip-path="url(#SVGID_2_)" fill="#9C1E21" cx="219.8" cy="471.8" r="72.2"/>
			<circle clip-path="url(#SVGID_2_)" fill="#9D1E21" cx="219.8" cy="471.8" r="70.6"/>
			<circle clip-path="url(#SVGID_2_)" fill="#9D1E21" cx="219.8" cy="471.8" r="69"/>
			<circle clip-path="url(#SVGID_2_)" fill="#9E1E22" cx="219.8" cy="471.8" r="67.4"/>
			<circle clip-path="url(#SVGID_2_)" fill="#9F1E22" cx="219.8" cy="471.8" r="65.8"/>
			<circle clip-path="url(#SVGID_2_)" fill="#A01E22" cx="219.8" cy="471.8" r="64.2"/>
			<circle clip-path="url(#SVGID_2_)" fill="#A11E22" cx="219.8" cy="471.8" r="62.6"/>
			<circle clip-path="url(#SVGID_2_)" fill="#A21F22" cx="219.8" cy="471.8" r="61"/>
			<circle clip-path="url(#SVGID_2_)" fill="#A31F22" cx="219.8" cy="471.8" r="59.5"/>
			<circle clip-path="url(#SVGID_2_)" fill="#A31F23" cx="219.8" cy="471.8" r="57.9"/>
			<circle clip-path="url(#SVGID_2_)" fill="#A41F23" cx="219.8" cy="471.8" r="56.3"/>
			<circle clip-path="url(#SVGID_2_)" fill="#A51F23" cx="219.8" cy="471.8" r="54.7"/>
			<circle clip-path="url(#SVGID_2_)" fill="#A61F23" cx="219.8" cy="471.8" r="53.1"/>
			<circle clip-path="url(#SVGID_2_)" fill="#A71F23" cx="219.8" cy="471.8" r="51.5"/>
			<circle clip-path="url(#SVGID_2_)" fill="#A81F24" cx="219.8" cy="471.8" r="49.9"/>
			<circle clip-path="url(#SVGID_2_)" fill="#A91F24" cx="219.8" cy="471.8" r="48.3"/>
			<circle clip-path="url(#SVGID_2_)" fill="#A91F24" cx="219.8" cy="471.8" r="46.7"/>
			<circle clip-path="url(#SVGID_2_)" fill="#AA1F24" cx="219.8" cy="471.8" r="45.1"/>
			<circle clip-path="url(#SVGID_2_)" fill="#AB1F24" cx="219.8" cy="471.8" r="43.5"/>
			<circle clip-path="url(#SVGID_2_)" fill="#AC1F25" cx="219.8" cy="471.8" r="41.9"/>
			<circle clip-path="url(#SVGID_2_)" fill="#AD1F25" cx="219.8" cy="471.8" r="40.3"/>
			<circle clip-path="url(#SVGID_2_)" fill="#AE2025" cx="219.8" cy="471.8" r="38.7"/>
			<circle clip-path="url(#SVGID_2_)" fill="#AF2025" cx="219.8" cy="471.8" r="37.1"/>
			<circle clip-path="url(#SVGID_2_)" fill="#AF2025" cx="219.8" cy="471.8" r="35.5"/>
			<circle clip-path="url(#SVGID_2_)" fill="#B02025" cx="219.8" cy="471.8" r="33.9"/>
			<circle clip-path="url(#SVGID_2_)" fill="#B12026" cx="219.8" cy="471.8" r="32.3"/>
			<circle clip-path="url(#SVGID_2_)" fill="#B22026" cx="219.8" cy="471.8" r="30.7"/>
			<circle clip-path="url(#SVGID_2_)" fill="#B32026" cx="219.8" cy="471.8" r="29.1"/>
			<circle clip-path="url(#SVGID_2_)" fill="#B42026" cx="219.8" cy="471.8" r="27.5"/>
			<circle clip-path="url(#SVGID_2_)" fill="#B52026" cx="219.8" cy="471.8" r="25.9"/>
			<circle clip-path="url(#SVGID_2_)" fill="#B62026" cx="219.8" cy="471.8" r="24.3"/>
			<circle clip-path="url(#SVGID_2_)" fill="#B62026" cx="219.8" cy="471.8" r="22.7"/>
			<circle clip-path="url(#SVGID_2_)" fill="#B72127" cx="219.8" cy="471.8" r="20.4"/>
			<circle clip-path="url(#SVGID_2_)" fill="#B82127" cx="219.8" cy="471.8" r="18.2"/>
			<circle clip-path="url(#SVGID_2_)" fill="#B92127" cx="219.8" cy="471.8" r="15.9"/>
			<circle clip-path="url(#SVGID_2_)" fill="#BB2228" cx="219.8" cy="471.8" r="13.6"/>
			<circle clip-path="url(#SVGID_2_)" fill="#BC2228" cx="219.8" cy="471.8" r="11.4"/>
			<circle clip-path="url(#SVGID_2_)" fill="#BD2328" cx="219.8" cy="471.8" r="9.1"/>
			<circle clip-path="url(#SVGID_2_)" fill="#BE2328" cx="219.8" cy="471.8" r="6.8"/>
			<circle clip-path="url(#SVGID_2_)" fill="#C02429" cx="219.8" cy="471.8" r="4.5"/>
			<circle clip-path="url(#SVGID_2_)" fill="#C12429" cx="219.8" cy="471.8" r="2.3"/>
		</g>
	</g>
	<g>
		<path fill="#FFFFFF" d="M262.7,366.4c0,0,65.1,107.5-58.2,70.7c0,0-123.9-44.8-42.9,42.9l95.1,99.3c1.8-0.6,3.6-1.3,5.3-2
			l-83.2-118.2c0,0,173,46.5,89.6-90.3C265,367.1,266.3,367.9,262.7,366.4z"/>
	</g>
</g>
</svg>
