<?xml version="1.0" encoding="utf-8"?>
<!-- Generator: Adobe Illustrator 25.2.3, SVG Export Plug-In . SVG Version: 6.00 Build 0)  -->
<svg version="1.1" id="Layer_1" xmlns="http://www.w3.org/2000/svg" xmlns:xlink="http://www.w3.org/1999/xlink" x="0px" y="0px"
	 viewBox="0 0 1920 760" style="enable-background:new 0 0 1920 760;" xml:space="preserve">
<style type="text/css">
	.st0{fill:url(#SVGID_1_);}
	.st1{fill:url(#SVGID_2_);}
	.st2{fill:url(#SVGID_3_);}
	.st3{fill:url(#SVGID_4_);}
	.st4{fill:#FFFFFF;stroke:#FFFFFF;stroke-miterlimit:10;}
	.st5{fill:url(#SVGID_5_);}
	.st6{fill:url(#SVGID_6_);}
	.st7{fill:url(#SVGID_7_);}
	.st8{fill:#FFFFFF;stroke:#231F20;stroke-miterlimit:10;}
	.st9{fill:url(#SVGID_8_);}
	.st10{fill:url(#SVGID_9_);}
	.st11{fill:url(#SVGID_10_);}
	.st12{fill:url(#SVGID_11_);}
	.st13{fill:url(#SVGID_12_);}
	.st14{fill:url(#SVGID_13_);}
</style>
<g>
	<g>
		
			<linearGradient id="SVGID_1_" gradientUnits="userSpaceOnUse" x1="39.6347" y1="384.2877" x2="275.7623" y2="384.2877" gradientTransform="matrix(1 0 0 -1 0 760)">
			<stop  offset="0" style="stop-color:#3B01A0"/>
			<stop  offset="0.215" style="stop-color:#6819BC"/>
			<stop  offset="0.4674" style="stop-color:#9733D9"/>
			<stop  offset="0.6917" style="stop-color:#B945EE"/>
			<stop  offset="0.8768" style="stop-color:#CD50FA"/>
			<stop  offset="1" style="stop-color:#D554FF"/>
		</linearGradient>
		<path class="st0" d="M275.8,264.6l-4.1,12.5l-54.1,166.2l-12.4,38.9c-0.9,2.8-2.9,4.7-5.2,4.7l0,0c-2.2,0-4.3-1.9-5.2-4.7
			l-37.2-115.4l-37.5,115.4c-1,2.8-3,4.7-5.2,4.7l0,0c-2.2,0-4.4-1.9-5.2-4.7l-65.9-205l-4.1-12.5h33.3c2.5,0,4.8,2,5.8,5.2l0,0
			l36.6,112.3l24.9-76.5l11.7-35.9l0,0c1.1-3.1,3.3-5.1,5.8-5.1l0,0c2.5,0,4.8,2,5.8,5.2l0,0l11.7,35.9l24.9,76.5L236.7,270l0,0
			c1.1-3.2,3.3-5.2,5.8-5.2h33.3V264.6z"/>
	</g>
	<g>
		
			<linearGradient id="SVGID_2_" gradientUnits="userSpaceOnUse" x1="1459.7875" y1="398.2899" x2="1587.8187" y2="398.2899" gradientTransform="matrix(1 0 0 -1 0 760)">
			<stop  offset="0" style="stop-color:#3B01A0"/>
			<stop  offset="0.215" style="stop-color:#6819BC"/>
			<stop  offset="0.4674" style="stop-color:#9733D9"/>
			<stop  offset="0.6917" style="stop-color:#B945EE"/>
			<stop  offset="0.8768" style="stop-color:#CD50FA"/>
			<stop  offset="1" style="stop-color:#D554FF"/>
		</linearGradient>
		<path class="st1" d="M1587.8,299.2v167c0,3.1-1.8,5.6-4.1,5.6h-2.3c-1.1,0-2.1-0.5-2.9-1.6l-22.5-31.1l-39.8-55.1l-22.9-31.8
			l-33.6-46.4v-27.7v-20.9l0,0c0-3.1,1.8-5.6,4.1-5.6h2.6c1.1,0,2.1,0.5,2.9,1.6l84.9,117.5V252.8l0,0
			C1572.8,252.8,1587.8,273.6,1587.8,299.2z M1459.9,351.6l33.6,46.4v73.6l0,0c-18.5,0-33.6-20.8-33.6-46.5V351.6z"/>
		
			<linearGradient id="SVGID_3_" gradientUnits="userSpaceOnUse" x1="1600.496" y1="397.4861" x2="1741.6886" y2="397.4861" gradientTransform="matrix(1 0 0 -1 0 760)">
			<stop  offset="0" style="stop-color:#3B01A0"/>
			<stop  offset="0.215" style="stop-color:#6819BC"/>
			<stop  offset="0.4674" style="stop-color:#9733D9"/>
			<stop  offset="0.6917" style="stop-color:#B945EE"/>
			<stop  offset="0.8768" style="stop-color:#CD50FA"/>
			<stop  offset="1" style="stop-color:#D554FF"/>
		</linearGradient>
		<path class="st2" d="M1606.9,332h120.7l0,0c0,25.6-15,46.5-33.6,46.5h-59.9v46.9c0,25.6-15,46.5-33.6,46.5l0,0v-93.4l0,0v-37.8
			l0,0C1600.6,335.9,1603.4,332,1606.9,332z M1600.6,299.6L1600.6,299.6c0-25.6,15-46.5,33.6-46.5h107.5l0,0
			c0,25.6-15,46.5-33.6,46.5H1600.6z"/>
		
			<linearGradient id="SVGID_4_" gradientUnits="userSpaceOnUse" x1="1738.7515" y1="397.4861" x2="1880.9536" y2="397.4861" gradientTransform="matrix(1 0 0 -1 0 760)">
			<stop  offset="0" style="stop-color:#3B01A0"/>
			<stop  offset="0.215" style="stop-color:#6819BC"/>
			<stop  offset="0.4674" style="stop-color:#9733D9"/>
			<stop  offset="0.6917" style="stop-color:#B945EE"/>
			<stop  offset="0.8768" style="stop-color:#CD50FA"/>
			<stop  offset="1" style="stop-color:#D554FF"/>
		</linearGradient>
		<path class="st3" d="M1880.9,253.2L1880.9,253.2c0,25.6-15,46.5-33.6,46.5h-22l0,0h-33.6l0,0h-53.2l0,0c0-25.6,15-46.5,33.6-46.5
			H1880.9z M1792,471.8V363.9c0-29.6,15-53.6,33.6-53.6l0,0v107.9C1825.5,447.8,1810.5,471.8,1792,471.8L1792,471.8z"/>
	</g>
	<g>
		<path class="st4" d="M382.8,395.1h-89.3c3.7,22.5,17.5,36.3,37.5,36.3c5.2,0,9.9-0.8,14.1-2.4c13.8-5.2,28.6-0.1,38.3,14.5
			l0.5,0.8c-12.2,19.2-30.4,29.2-53.9,29.2c-45.2,0-74.6-39.4-74.6-93.3c0-54.1,29.9-93.3,69.8-93.3c38.4,0,68,35.6,68,93.9v0.1
			C393.1,389,388.4,395.1,382.8,395.1z M293,364.6h64.4c-2.7-22.9-15.1-37.7-32-37.7C308.1,326.9,295.7,341.3,293,364.6z"/>
		<path class="st4" d="M397.5,380.4c0-54.5,30.4-93.3,72.9-93.3c27.5,0,49.1,16.5,58.5,46.1l0,0c-13.6,10.2-30.2,11.3-44.1,1.6
			c-4.5-3.2-9.5-4.7-14.7-4.7c-19.2,0-34.3,18.5-34.3,50.1s15.1,50.1,34.3,50.1c5.3,0,10.3-1.5,14.8-4.7c13.2-9.1,28.5-9.6,41.5,0
			l2.5,1.9c-9.5,28.9-31.1,45.8-58.5,45.8C427.9,473.5,397.5,434.9,397.5,380.4z"/>
		<path class="st4" d="M655.4,367.5v54.1c0,27.1-15.9,49.2-35.5,49.2l0,0v-22.5c-7.1,16.5-20.6,25.2-39.9,25.2
			c-30.6,0-48.9-23.6-48.9-54.8c0-32,16.3-54.1,56.1-54.1h30.1c0-23.6-10.6-36.8-33.1-35.6c-4.4,0.3-8.7,1.3-13,2.7
			c-14,4.4-28.5-4.4-35.2-22.2l-0.1-0.3c14.3-14.1,35.5-21.8,56.4-21.8C632.3,287.1,655.4,312.7,655.4,367.5z M617.5,413.6v-18.5
			h-26c-17.7,0-23.3,9.1-23.3,21.2c0,13.1,8,21.8,21.4,21.8C602.2,438.3,613.1,430.1,617.5,413.6z"/>
		<path class="st4" d="M759.6,334.4v1.2c-3.2-0.4-5.6-0.7-8.5-0.7c-20.9,0-34.7,15.8-34.7,50.5v33c0,28.9-16.9,52.5-37.9,52.5l0,0
			V340.1c0-27.7,16.3-50.1,36.2-50.1l0,0v23.9c0.1-0.1,0.2-0.4,0.3-0.5C729.1,286.9,759.6,301.5,759.6,334.4z"/>
		<path class="st4" d="M887.6,395.1h-89.3c3.7,22.5,17.5,36.3,37.5,36.3c5.2,0,9.9-0.8,14.1-2.4c13.8-5.2,28.6-0.1,38.3,14.5
			l0.5,0.8c-12.2,19.2-30.4,29.2-53.9,29.2c-45.2,0-74.6-39.4-74.6-93.3c0-54.1,29.9-93.3,69.8-93.3c38.4,0,68,35.6,68,93.9v0.1
			C897.9,389,893.2,395.1,887.6,395.1z M797.8,364.6h64.4c-2.7-22.9-15.1-37.7-32-37.7C812.9,326.9,800.5,341.3,797.8,364.6z"/>
		<path class="st4" d="M968.2,399.8L950,424.8v46.1l0,0c-20.9,0-37.9-23.4-37.9-52.5V221.2l0,0c20.9,0,37.9,23.4,37.9,52.5v88.8
			l31.9-41.9c15-19.7,34.9-30.7,55.7-30.7h13l-54.5,76.8l59.3,104.2h-12.9c-20.9,0-40.6-13.1-53.7-35.6L968.2,399.8z"/>
		<path class="st4" d="M1060.3,289.8L1060.3,289.8c20.9,0,37.9,23.4,37.9,52.5v128.5l0,0c-20.9,0-37.9-23.4-37.9-52.5V289.8z"/>
		<path class="st4" d="M1201,462.1c-7.7,7.8-19.2,11.4-30.9,11.4c-30.9,0-48.9-21.8-48.9-65v-74.4h-20.1v-12.5
			c0-15.4,9-27.9,20.1-27.9l0,0l0,0c0-24.4,14.2-44.1,31.8-44.1h6.1v44.1h32.6l0,0c0,22.2-13.1,40.3-29.1,40.3h-3.4v73.7
			c0,15.5,6.1,23.9,16.3,23.9c0.1,0,0.1,0,0.2,0c10.1-0.1,19.3,8,22.8,21L1201,462.1z"/>
		<path class="st4" d="M1289.8,462.1c-7.7,7.8-19.2,11.4-30.9,11.4c-30.9,0-48.9-21.8-48.9-65v-74.4h-20.1v-12.5
			c0-15.4,9-27.9,20.1-27.9l0,0l0,0c0-24.4,14.2-44.1,31.8-44.1h6.1v44.1h32.6l0,0c0,22.2-13.1,40.3-29.1,40.3h-3.4v73.7
			c0,15.5,6.1,23.9,16.3,23.9c0.1,0,0.1,0,0.2,0c10.1-0.1,19.3,8,22.8,21L1289.8,462.1z"/>
		<path class="st4" d="M1435.8,289.8l-59,192.1c-12.7,43.7-30.6,56.8-54.2,56.8c-13.4,0-28-6-36.5-16.5l0.5-1.2
			c6.2-16.9,19.3-26,32.9-24.8c0.7,0,1.3,0.1,1.9,0.1c10.5,0,16.3-6.4,21.4-22.5l0.5-1.7l-56.6-182.4l0,0c23.7,0,45,19.7,54.1,50.1
			l21.8,72.8l22.9-76.2C1393.8,308.2,1413.7,289.8,1435.8,289.8L1435.8,289.8z"/>
	</g>
	
		<linearGradient id="SVGID_5_" gradientUnits="userSpaceOnUse" x1="177.7119" y1="385.8778" x2="275.7623" y2="385.8778" gradientTransform="matrix(1 0 0 -1 0 760)">
		<stop  offset="0" style="stop-color:#3B01A0"/>
		<stop  offset="0.215" style="stop-color:#6819BC"/>
		<stop  offset="0.4674" style="stop-color:#9733D9"/>
		<stop  offset="0.6917" style="stop-color:#B945EE"/>
		<stop  offset="0.8768" style="stop-color:#CD50FA"/>
		<stop  offset="1" style="stop-color:#D554FF"/>
	</linearGradient>
	<path class="st5" d="M275.8,264.6c0,0-77.6,218-93.3,176.3s12.4,41.3,12.4,41.3s6.9,10.5,18.7-26.3
		C225.4,419.1,275.8,264.6,275.8,264.6z"/>
	
		<linearGradient id="SVGID_6_" gradientUnits="userSpaceOnUse" x1="1084.7356" y1="385.8778" x2="1182.7859" y2="385.8778" gradientTransform="matrix(-1 0 0 -1 1221.84 760)">
		<stop  offset="0" style="stop-color:#3B01A0"/>
		<stop  offset="0.215" style="stop-color:#6819BC"/>
		<stop  offset="0.4674" style="stop-color:#9733D9"/>
		<stop  offset="0.6917" style="stop-color:#B945EE"/>
		<stop  offset="0.8768" style="stop-color:#CD50FA"/>
		<stop  offset="1" style="stop-color:#D554FF"/>
	</linearGradient>
	<path class="st6" d="M39.1,264.6c0,0,77.6,218,93.3,176.3S120,482.2,120,482.2s-6.9,10.5-18.7-26.3
		C89.3,419.1,39.1,264.6,39.1,264.6z"/>
	
		<linearGradient id="SVGID_7_" gradientUnits="userSpaceOnUse" x1="136.5051" y1="430.7164" x2="200.0853" y2="430.7164" gradientTransform="matrix(1 0 0 -1 0 760)">
		<stop  offset="0" style="stop-color:#3B01A0"/>
		<stop  offset="0.215" style="stop-color:#6819BC"/>
		<stop  offset="0.4674" style="stop-color:#9733D9"/>
		<stop  offset="0.6917" style="stop-color:#B945EE"/>
		<stop  offset="0.8768" style="stop-color:#CD50FA"/>
		<stop  offset="1" style="stop-color:#D554FF"/>
	</linearGradient>
	<path class="st7" d="M149.7,276.4c0,0,20.2,13.3,50.4,105.7L136.5,317L149.7,276.4z"/>
	<g id="Cat">
		<g>
			<path class="st8" d="M123.8,445.8c0.3-1.1,0.8-2.3,1.2-3.2c0.6-1.3,1-3.2,1.4-5.2c-9.7,2.1-28.5-4.3-28.8,0.5
				C97.1,442.8,118,445.7,123.8,445.8z"/>
		</g>
		<g>
			<path class="st8" d="M171.8,454c-3.2-6,12.3-54.9,10.5-76.5c-0.3-5.8-1.5-12.2-7.8-20.4c-6.3-8.2-0.1-14.5-11.9-22.1
				c0,0-6.8-10.3-9.6-9c-2.8,1.5,0.3,11.5,0.3,11.5s-4.5,4.6-6,10c0,0-7.7,0.1-8.2,2.9c-0.5,2.8,2.7,7,8.8,10c0,0,0,0,0,0.1
				c0-0.1,0-0.3,0-0.3s1.8,4.3,4,7.4c-0.6-0.3-1.1-0.5-1.5-0.9c0,1.7,0,5.1-0.6,7.4c-0.8,3.2-10.4,4.7-13,12.6
				c-2.6,7.9-5.1,11-6.4,22.4c-1.2,11.4-2.6,14.3-2.4,18.8c0,1.5-0.1,3.2-0.4,5c-0.1,3.3-0.6,7-1.8,9.8c-1,2-1.9,4.4-2.2,6.6
				c0,1.1,0.2,2.1,0.6,3.1c1.4,2.7,5.4,4.6,7.5,4.7c2.1,0.1,8.2,5.1,10.5,3.6c0.5-0.3,1.1-0.7,1.5-1.2c1.4-1.7,2.4-3.9,1.5-6.2
				c-1.3-3.2-4.9-3.5-7.5-3.8c2.1-1.1,7.1-0.1,8.3,3.1c0.3,0.7,0.4,1.3,0.4,1.9c1.5,0.1,5.8,0.3,8.8-1.2c-1-5-2-11.1-3.1-16.5
				c-2.1-11-7.9-28.9-7.9-28.9s6.3,16.9,8.7,28.5c1.5,7.4,2.6,16.1,3.5,21.6c0.4,1.7,0.8,2.9,1.1,3.2c1.2,1.3,2.8,1.9,4.4,1.2
				c1.5-0.8,2.9-0.7,4-1.3c0.7,0,1.2-0.3,1.5-0.8c0-0.5,0-0.9,0-1.3c0.1-3.5-1.7-2.5-2.9-3.8c-1.3-1.1-3.2-36.2-2.8-36.8
				c0.2,0,1.5,16.5,2.4,27.2c0.6-7.6,2.2-22.2,2-27.2c1.1,5.6-0.4,24.1-1.7,30.1c0.3,3.2,0.6,5.5,0.7,5.9c0.3,0.9,2.8-0.1,2.7,4.4
				c0,0.3,0,0.8-0.1,1.2c0.4,0.1,1.1,0.3,1.7-0.1c0,0,1.5,0.3,2.4-0.9c0,0,1.5,0.1,1.7-1.5C174,455.7,173.3,454.9,171.8,454z"/>
		</g>
	</g>
	
		<linearGradient id="SVGID_8_" gradientUnits="userSpaceOnUse" x1="1459.739" y1="348.4446" x2="1493.4132" y2="348.4446" gradientTransform="matrix(1 0 0 -1 0 760)">
		<stop  offset="0" style="stop-color:#3B01A0"/>
		<stop  offset="0.215" style="stop-color:#6819BC"/>
		<stop  offset="0.4674" style="stop-color:#9733D9"/>
		<stop  offset="0.6917" style="stop-color:#B945EE"/>
		<stop  offset="0.8768" style="stop-color:#CD50FA"/>
		<stop  offset="1" style="stop-color:#D554FF"/>
	</linearGradient>
	<path class="st9" d="M1459.9,351.6c0,0,26.7,57.6,33.6,119.9C1493.4,471.5,1457.2,432.3,1459.9,351.6z"/>
	
		<linearGradient id="SVGID_9_" gradientUnits="userSpaceOnUse" x1="1505.7002" y1="483.4858" x2="1587.6658" y2="315.4317" gradientTransform="matrix(1 0 0 -1 0 760)">
		<stop  offset="0" style="stop-color:#3B01A0"/>
		<stop  offset="0.215" style="stop-color:#6819BC"/>
		<stop  offset="0.4674" style="stop-color:#9733D9"/>
		<stop  offset="0.6917" style="stop-color:#B945EE"/>
		<stop  offset="0.8768" style="stop-color:#CD50FA"/>
		<stop  offset="1" style="stop-color:#D554FF"/>
	</linearGradient>
	<path class="st10" d="M1459.9,305.8c0,0,45.5,5.8,94.4,65c48.9,59.2,0-117.9,0-117.9s61.1,177.8,13.1,201.7L1459.9,305.8z"/>
	
		<linearGradient id="SVGID_10_" gradientUnits="userSpaceOnUse" x1="1663.7375" y1="498.8223" x2="1678.4618" y2="468.6334" gradientTransform="matrix(1 0 0 -1 0 760)">
		<stop  offset="0" style="stop-color:#3B01A0"/>
		<stop  offset="0.215" style="stop-color:#6819BC"/>
		<stop  offset="0.4674" style="stop-color:#9733D9"/>
		<stop  offset="0.6917" style="stop-color:#B945EE"/>
		<stop  offset="0.8768" style="stop-color:#CD50FA"/>
		<stop  offset="1" style="stop-color:#D554FF"/>
	</linearGradient>
	<path class="st11" d="M1600.6,299.6c0,0,126-13.8,141.1-46.5C1741.7,253.2,1646.9,251.1,1600.6,299.6z"/>
	
		<linearGradient id="SVGID_11_" gradientUnits="userSpaceOnUse" x1="1634.4235" y1="419.021" x2="1679.4785" y2="326.6443" gradientTransform="matrix(1 0 0 -1 0 760)">
		<stop  offset="0" style="stop-color:#3B01A0"/>
		<stop  offset="0.215" style="stop-color:#6819BC"/>
		<stop  offset="0.4674" style="stop-color:#9733D9"/>
		<stop  offset="0.6917" style="stop-color:#B945EE"/>
		<stop  offset="0.8768" style="stop-color:#CD50FA"/>
		<stop  offset="1" style="stop-color:#D554FF"/>
	</linearGradient>
	<path class="st12" d="M1727.7,332c0,0-127,4-127,34.3c0,30.3,0,105.6,0,105.6s9.6-87,33.6-93.4
		C1634.2,378.4,1725.9,362.8,1727.7,332z"/>
	
		<linearGradient id="SVGID_12_" gradientUnits="userSpaceOnUse" x1="1801.2673" y1="501.2728" x2="1818.813" y2="465.299" gradientTransform="matrix(1 0 0 -1 0 760)">
		<stop  offset="0" style="stop-color:#3B01A0"/>
		<stop  offset="0.215" style="stop-color:#6819BC"/>
		<stop  offset="0.4674" style="stop-color:#9733D9"/>
		<stop  offset="0.6917" style="stop-color:#B945EE"/>
		<stop  offset="0.8768" style="stop-color:#CD50FA"/>
		<stop  offset="1" style="stop-color:#D554FF"/>
	</linearGradient>
	<path class="st13" d="M1738.8,299.6c0,0,17.7-43.4,142.2-46.5C1880.9,253.2,1860,300.1,1738.8,299.6z"/>
	
		<linearGradient id="SVGID_13_" gradientUnits="userSpaceOnUse" x1="1780.1226" y1="427.5468" x2="1837.2959" y2="310.3246" gradientTransform="matrix(1 0 0 -1 0 760)">
		<stop  offset="0" style="stop-color:#3B01A0"/>
		<stop  offset="0.215" style="stop-color:#6819BC"/>
		<stop  offset="0.4674" style="stop-color:#9733D9"/>
		<stop  offset="0.6917" style="stop-color:#B945EE"/>
		<stop  offset="0.8768" style="stop-color:#CD50FA"/>
		<stop  offset="1" style="stop-color:#D554FF"/>
	</linearGradient>
	<path class="st14" d="M1825.5,310.3c0,0-2.4,148.5-33.6,161.5C1792,471.8,1801.4,335.1,1825.5,310.3z"/>
</g>
</svg>
