<?xml version="1.0" encoding="utf-8"?>
<!-- Generator: Adobe Illustrator 25.2.3, SVG Export Plug-In . SVG Version: 6.00 Build 0)  -->
<svg version="1.1" id="Layer_1" xmlns="http://www.w3.org/2000/svg" xmlns:xlink="http://www.w3.org/1999/xlink" x="0px" y="0px"
	 viewBox="0 0 1920 760" style="enable-background:new 0 0 1920 760;" xml:space="preserve">
<style type="text/css">
	.st0{fill:#F99E1C;}
	.st1{fill:#137486;}
</style>
<g>
	<path class="st0" d="M1756.82,247.03h19.11v46.32c7.98,0,14.45-6.47,14.45-14.45v-31.88h6.43c7,0,12.68-5.68,12.68-12.68h-39.99
		C1762.5,234.35,1756.82,240.03,1756.82,247.03z"/>
	<path class="st0" d="M1859.78,246.89l-11.26,21.28c-0.81,1.53-3.01,1.53-3.83,0l-11.22-21.21c-4.11-7.76-12.17-12.61-20.95-12.61
		v59c7.78,0,14.09-6.31,14.09-14.09v-17.53l15.09,28.65c0.96,1.82,2.85,2.96,4.91,2.96s3.95-1.14,4.91-2.96l15-28.47v17.34
		c0,7.78,6.31,14.09,14.09,14.09v-59C1871.88,234.35,1863.86,239.18,1859.78,246.89z"/>
</g>
<path class="st1" d="M216.55,321.91l-4.26,19.29c-11.71-15.62-31.24-24.49-57.73-24.49c-66.5,0-106.95,59.15-106.95,113.7
	c0,49.58,34.43,88.14,80.81,88.14c22.72,0,39.16-8.52,51.82-20.94l-3.31,15.86h50.17l31.24-146.83
	C221.04,361.79,216.55,321.91,216.55,321.91z M198.45,418.1c-3.55,29.93-25.67,52.18-54.19,52.18c-25.31,0-43.31-17.75-43.31-45.2
	c0-32.89,23.55-60.34,54.78-60.34C183.18,364.74,202.35,386.16,198.45,418.1z"/>
<path class="st1" d="M378.96,316.71c-19.17,0-38.57,5.91-54.54,25.32l3.79-17.04c-2.37,7.69-12.66,27.57-55.96,29.22l-33.84,159.26
	h51.82l21.54-101.99c7.1-31.11,27.09-45.55,51.23-45.55c9.59,0,20.35,2.25,27.81,6.16l16.69-49.58
	C398.48,318.95,388.19,316.71,378.96,316.71z"/>
<path class="st1" d="M489.23,364.99c4.97,0,10.42,0.47,16.09,2.25c22.72,7.22,47.33,6.39,68.03-5.44h0.12
	c-15.74-28.87-43.42-44.73-81.64-44.73c-64.48,0-109.68,50.28-109.68,110.15c0,52.06,37.38,90.75,93.46,90.75
	c30.29,0,57.73-12.42,77.26-34.78l-0.23-0.24c-16.56-15.62-39.87-19.87-61.99-14.55c-4.26,1.06-8.52,1.54-13.01,1.54
	c-24.14,0-42.48-18.93-42.48-46.26C435.16,391.84,457.99,364.99,489.23,364.99z"/>
<path class="st1" d="M694.85,316.71c-18.57,0-36.91,5.32-52.29,21.41l21.3-101.28c0.83-3.9-4.26-6.39-6.74-3.2
	c-9.59,12.77-25.08,24.61-50.17,26.5l-53.6,253.31c15.14,0,29.22-5.32,40.34-14.32c11.12-9,19.17-21.65,22.36-36.44l11.01-52.06
	c7.1-33.48,27.45-45.43,49.1-45.43s29.82,12.18,29.82,28.04c0,4.15-0.36,8.28-1.42,12.66L681.5,513.46
	c15.14,0,29.1-5.21,40.22-14.19c11.12-8.99,19.17-21.54,22.36-36.32l13.13-61.17c1.54-7.22,2.13-14.32,2.13-20.82
	C759.34,343.45,734.84,316.71,694.85,316.71z"/>
<path class="st0" d="M1126.55,397.04l-12.77-2.48c-17.63-3.31-28.28-5.68-26.98-19.17c1.18-9.82,11.71-15.61,30.64-15.61
	c6.94,0,16.04,1.15,25.57,3.38c22.02,5.17,44.93-3.57,56.75-22.86l1.33-2.17c-23.55-13.72-51.35-21.18-83.65-21.18
	c-47.44,0-78.8,20.71-83.53,59.87c-3.79,30.88,13.37,53.36,57.27,60.46l13.25,2.25c19.64,3.31,27.45,8.52,26.5,18.1
	c-1.18,11.36-12.07,17.87-34.55,17.87c-9.99,0-19.85-1.61-29.24-4.4c-22.31-6.62-46.3,1.95-59.02,21.43l0,0
	c22.36,16.8,57.03,25.79,87.43,25.79c51.82,0,83.17-23.66,87.79-61.99C1186.89,426.62,1170.08,404.85,1126.55,397.04z"/>
<g>
	<path class="st1" d="M1281.05,469.93c-24.02,0-42.48-18.93-42.48-46.26c0-31.83,22.95-58.68,54.19-58.68
		c4.93,0,10.4,0.51,16.01,2.28c22.78,7.18,47.3,6.35,68.09-5.4l0.14-0.08c-15.86-28.87-43.54-44.73-81.64-44.73
		c-64.48,0-109.68,50.28-109.68,110.15c0,52.06,37.27,90.75,93.46,90.75c30.17,0,57.73-12.42,77.26-34.78l-0.25-0.23
		c-16.6-15.61-39.91-19.82-62.08-14.52C1289.87,469.42,1285.51,469.93,1281.05,469.93z"/>
	<g>
		<path class="st1" d="M1529.98,321.91l-4.26,19.29c-11.71-15.62-31.24-24.49-57.74-24.49c-66.5,0-106.95,59.15-106.95,113.7
			c0,49.58,34.31,88.14,80.81,88.14c22.72,0,39.16-8.52,51.82-20.94l-3.31,15.86l0,0c29.25,0,54.51-20.46,60.59-49.07l19.63-92.36
			C1576.05,346.22,1556.37,321.91,1529.98,321.91L1529.98,321.91z M1511.88,418.1c-3.55,29.93-25.79,52.18-54.19,52.18
			c-25.32,0-43.31-17.75-43.31-45.2c0-32.89,23.55-60.34,54.78-60.34C1496.62,364.74,1515.79,386.16,1511.88,418.1z"/>
		<path class="st1" d="M1691.6,316.71c-19.52,0-39.4,6.16-55.37,24.49l4.38-19.29l0,0c-29.05,0-54.13,20.31-60.16,48.72
			l-30.34,142.83l0,0c30.14,0,56.17-21.09,62.42-50.58l11.06-52.24c7.1-33.48,27.57-45.43,49.1-45.43
			c21.88,0,30.05,12.18,30.05,28.04c0,4.15-0.47,8.28-1.42,12.66l-12.27,56.89c-5.62,26.06,14.24,50.66,40.9,50.66l0,0l23.9-111.69
			c1.65-7.22,2.25-14.32,2.25-20.82C1756.08,343.45,1731.47,316.71,1691.6,316.71z"/>
	</g>
</g>
<path class="st1" d="M794.81,336.23c-11.12,9-19.29,21.65-22.36,36.44l-29.93,140.79c15.14,0,29.22-5.32,40.34-14.32
	c11.12-9,19.17-21.65,22.36-36.44l29.93-140.79C820.01,321.91,805.93,327.24,794.81,336.23z"/>
<path class="st1" d="M991.48,491.45c-13.06-16.55-34.57-24.24-55.01-19.06c-6.07,1.54-12.36,2.27-18.93,2.27
	c-20.35,0-34.67-8.28-40.7-23.55h-53.01c6.74,39.75,38.46,67.44,89.33,67.44C945.93,518.55,970.66,509.91,991.48,491.45
	L991.48,491.45z M932.56,316.71c-78.32,0-110.15,69.45-110.15,117.84c0,0.11,0,0.11,0,0.24h184.21c4.14-9.94,7.58-26.98,7.58-39.99
	C1014.2,347.12,980.83,316.71,932.56,316.71z M964.39,399.53h-84.84c7.33-19.76,22.36-38.33,50.05-38.33
	C951.72,361.2,965.87,374.24,964.39,399.53C964.4,399.52,964.39,399.52,964.39,399.53z"/>
<path class="st0" d="M842.59,233.38l-12.16-8.06c-51.56-32.6-98.11-38.15-155.19-39.22c-57.26-1.31-112.57,9.97-164.79,27.42
	c-52.48,17-102.07,40.78-149.76,67.33c-23.88,13.25-46.73,28.38-69.29,43.54c-11.51,6.97-23.92,13.29-37.34,14.82
	c-6.63,0.63-13.43,0.36-19.55-2.05c-5.98-2.34-15.36-11.06-18.18-16.27l-1.57,9.15c9.38,12.45,26.12,13.17,39.55,11.04
	c13.61-2.48,26.28-8.16,37.9-15.36c22.96-14.77,46.44-28.44,70.67-40.77c48.18-25.09,99.35-44.28,151.56-57.28
	c52.28-12.15,106.47-17.41,157.85-8.82c25.64,3.98,50.22,12.04,72.8,22.9c15.76,7.86,26.1,17.04,39.83,28.37
	c5.79,4.78,10.71,10.76,17.11,14.68c6.91,4.23,12.64,7.17,20.37,7.17c19.29,0,34.08-15.27,32.89-34.9
	C854.69,247.05,850.36,239.1,842.59,233.38z"/>
</svg>
