<?xml version="1.0" encoding="utf-8"?>
<!-- Generator: Adobe Illustrator 25.2.3, SVG Export Plug-In . SVG Version: 6.00 Build 0)  -->
<svg version="1.1" id="Layer_1" xmlns="http://www.w3.org/2000/svg" xmlns:xlink="http://www.w3.org/1999/xlink" x="0px" y="0px"
	 viewBox="0 0 1920 760" style="enable-background:new 0 0 1920 760;" xml:space="preserve">
<style type="text/css">
	.st0{fill:#FFFFFF;}
	.st1{fill:#00B7FF;}
	.st2{fill:none;stroke:#00AEEF;stroke-width:5;stroke-miterlimit:10;}
</style>
<g id="Layer_1_2_">
	<g>
		<g>
			<path class="st0" d="M1278,438.9c0-61,53.6-106.1,126.9-106.1c72.8,0,126.9,44.8,126.9,106.1S1477.7,545,1404.9,545
				C1331.6,545,1278,499.9,1278,438.9z M1477.4,438.9c0-38.9-31.1-65.6-72.6-65.6c-41.4,0-72.6,26.7-72.6,65.6s31.1,65.6,72.6,65.6
				S1477.4,477.9,1477.4,438.9z"/>
			<path class="st0" d="M1596.4,336.4L1596.4,336.4v157.7c0,26.2-24,47.5-53.6,47.5l0,0V383.9
				C1542.7,357.7,1566.7,336.4,1596.4,336.4z"/>
			<path class="st0" d="M1822.8,336.4v205.1h-7.2c-23.3,0-45.5-9.3-60.2-25.2l-92.3-99.3v124.6l0,0c-29.2,0-53-21-53-46.9v-119
				c0-21.7,19.8-39.3,44.4-39.3l0,0l115.2,124.6v-77.6C1769.8,357.4,1793.5,336.4,1822.8,336.4L1822.8,336.4z"/>
		</g>
		<g>
			<path class="st1" d="M439.5,336.3l-85,207.4l0,0c-39.2,0-74.3-21.7-87.6-54.3l-30.4-74.4l-54.4,128.7l0,0
				c-39.2,0-74.2-21.7-87.6-54.3l-40.6-99.7c-10.6-26,11.1-53.3,42.4-53.3l0,0l55.4,140.4l37.9-92.4c11.8-28.7,42.7-47.8,77.1-47.8
				l0,0l55.8,140.4l36.8-90.3C371.3,356.2,403.5,336.3,439.5,336.3L439.5,336.3z"/>
			<path class="st1" d="M654.9,425.3v62.1c0,31.1-28.4,56.2-63.6,56.2l0,0v-25.9c-12.6,18.9-37,28.9-71.5,28.9
				c-54.9,0-87.6-26.9-87.6-62.9c0-36.7,29.2-62.1,100.6-62.1h54.2c0-25.9-17.4-40.8-54-40.8c-9.2,0-18.8,1.1-27.8,3
				c-25.6,5.5-52-4.9-64.1-25.6v-0.1c25.8-16.1,63.6-25,101.1-25C613.6,333.2,654.9,362.5,654.9,425.3z M587.1,478.1v-21.2h-46.7
				c-31.8,0-41.8,10.4-41.8,24.3c0,15.1,14.4,25,38.4,25C559.6,506.2,579.2,496.9,587.1,478.1z"/>
			<path class="st1" d="M815.9,333.2v41.5c0,7.4-6.8,13.3-15.2,13.3h-0.1c-37.4,0-62.4,18.2-62.4,57.8v97.9l0,0
				c-37.5,0-68-26.9-68-60.1v-89.8c0-31.7,29.1-57.4,64.9-57.4l0,0v27.4C751.9,343.5,779.8,333.2,815.9,333.2z"/>
			<path class="st1" d="M810.5,440c0-62.4,54.5-106.8,130.8-106.8c49.2,0,88,18.9,105,52.8l-1.9,0.9c-24.3,11.5-53.1,11.4-77.8,0.7
				c-7.9-3.4-16.6-5-25.8-5c-34.5,0-61.4,21.2-61.4,57.4s27,57.4,61.4,57.4c9.1,0,17.8-1.5,25.8-4.9c24.9-10.6,53.9-10.6,78.2,1.1
				l1.5,0.7c-17,33.1-55.8,52.4-105,52.4C864.9,546.8,810.5,502.4,810.5,440z"/>
			<path class="st0" d="M1043.7,440c0-62.4,54.4-106.8,130.8-106.8c49.2,0,88,18.9,105,52.8l-1.9,0.9c-24.3,11.5-53.1,11.4-77.8,0.7
				c-7.9-3.4-16.6-5-25.8-5c-34.5,0-61.4,21.2-61.4,57.4s27,57.4,61.4,57.4c9.1,0,17.8-1.5,25.8-4.9c24.9-10.6,53.9-10.6,78.2,1.1
				l1.5,0.7c-17,33.1-55.8,52.4-105,52.4C1098.2,546.8,1043.7,502.4,1043.7,440z"/>
		</g>
		<g>
			<path class="st0" d="M1503.6,268.5c0-8.8,1.5-17,4.2-24.2c2.9-8,11.3-13.4,20.8-13.4l0,0c-7.8,12.1-11,24.1-11,37.6
				c0,13.5,3.2,25.5,11,37.6l0,0c-9.2,0-17.6-5.1-20.5-12.7C1505.2,286,1503.6,277.6,1503.6,268.5z"/>
			<path class="st0" d="M1633,234.4l-20.8,56.2l0,0c-9.4,0-17.7-5.3-20.7-13.3l-9.1-24.8l-9.4,24.9c-2.9,7.8-11.3,13.2-20.7,13.2
				l0,0l-20.9-56.2l0,0c9.1,0,17.2,5.2,20,12.8l9.7,26.7l10.6-28.1c2.6-6.9,9.8-11.4,18-11.4l0,0l14.5,39.9l10.5-28
				C1617.2,239.1,1624.5,234.4,1633,234.4L1633,234.4z"/>
			<path class="st0" d="M1666,278.5h-29.5l0,0c-3.3,7.2-11.4,12.1-20.4,12.1h-0.3l22.4-44.5c3.6-7.1,11.7-11.7,20.4-11.7l0,0
				l28.4,56.2h-0.7C1677.4,290.5,1669.3,285.8,1666,278.5L1666,278.5z M1661.3,268.7l-10.1-21.5l-10.1,21.5H1661.3z"/>
			<path class="st0" d="M1745.4,290.5c-9.9,0-19.2-4.3-24.8-11.5l-3.2-4.1h-0.7h-12.7v2.6c0,7.2-6.6,13-14.8,13l0,0v-40.1
				c0-8.9,8.2-16.1,18.2-16.1h9.2c17,0,27.6,7.8,27.6,20.4c0,8.4-4.8,14.6-13,17.8L1745.4,290.5L1745.4,290.5z M1715.9,244.9h-11.9
				v19.6h11.9c9,0,13.5-3.7,13.5-9.8C1729.3,248.5,1724.8,244.9,1715.9,244.9z"/>
			<path class="st0" d="M1745.4,262.4c0-17,14.8-29.1,34.5-29.1c11,0,20.1,3.6,26.2,10l0,0c-4.7,3.8-11.4,4.9-17.2,2.6
				c-2.6-0.9-5.4-1.4-8.3-1.4c-11.9,0-20.4,7.4-20.4,18c0,10.6,8.4,18,20.4,18c3.1,0,5.8-0.5,8.3-1.5c5.8-2.3,12.5-1.2,17,2.6l0,0
				c-6,6.5-15.2,10.1-26.3,10.1C1760.1,291.5,1745.4,279.3,1745.4,262.4z"/>
			<path class="st0" d="M1802.6,306.2c7.8-12.1,11.1-24.1,11.1-37.6c0-13.5-3.2-25.5-11.1-37.6l0,0c9.5,0,18,5.5,20.9,13.4
				c2.7,7.2,4,15.4,4,24.1c0,8.8-1.3,17-4.2,24.2C1820.6,300.7,1812.2,306.2,1802.6,306.2L1802.6,306.2z"/>
		</g>
		<path class="st2" d="M1459.8,268.5H51.3H1459.8z"/>
		<g>
			<path class="st0" d="M1831.2,188.7h-4.3c-3.3,0-6.2-2.4-6.2-5.5l0,0h22.1c3.3,0,6.2,2.4,6.2,5.5l0,0h-10.3V212l0,0
				c-4.2,0-7.5-3-7.5-6.6V188.7L1831.2,188.7z"/>
			<path class="st0" d="M1879.7,212v-17.2l-9.5,14.1l0,0c-2.2,0-4-0.9-5.1-2.6l-7.8-11.3v16.8l0,0c-3.9,0-7-2.7-7-6.2v-17
				c0-3.1,2.8-5.5,6.2-5.5l0,0l12.1,17.8l8.8-13.2c2-2.8,5.5-4.6,9.2-4.6l0,0l0.1,22.4C1886.7,209.1,1883.6,212,1879.7,212
				L1879.7,212z"/>
		</g>
	</g>
</g>
</svg>
