<?xml version="1.0" encoding="utf-8"?>
<!-- Generator: Adobe Illustrator 25.2.3, SVG Export Plug-In . SVG Version: 6.00 Build 0)  -->
<svg version="1.1" id="Layer_1" xmlns="http://www.w3.org/2000/svg" xmlns:xlink="http://www.w3.org/1999/xlink" x="0px" y="0px"
	 viewBox="0 0 1920 760" style="enable-background:new 0 0 1920 760;" xml:space="preserve">
<style type="text/css">
	.st0{fill:#874165;}
	.st1{fill:#FFFFFF;}
</style>
<g id="Layer_1_1_">
	<g>
		<g>
			<rect x="139.7" y="253.8" class="st0" width="1322.5" height="4.9"/>
		</g>
		<g>
			<path class="st1" d="M404.6,392.4L381.5,485c-8.1,32.5-44,56-85.7,56l0,0l4.9-20.5c-20.8,15-48,23.4-79.9,23.4
				c-60.6,0-112.4-33.9-112.4-93c0-69.8,63.4-120.6,143.9-120.6c37.8,0,67.8,9.6,84.8,31.2l6.8-28.2l0,0
				C382.8,333.5,412.2,361.9,404.6,392.4z M320.5,426c0-28.2-21.8-45.9-59.6-45.9c-44.6,0-76.6,27.8-76.6,68.2
				c0,28.2,21.8,45.9,59.6,45.9C288.5,494.2,320.5,466.5,320.5,426z"/>
		</g>
		<g>
			<path class="st1" d="M589,330.3l-13.6,55.6c-6.8-0.4-11.1-0.7-17.4-0.7c-44.6,0-73.1,16.6-82.9,55.6L449.8,541l0,0
				c-39,0-68.5-28.5-60.9-58.9l23.2-92.6c8.1-32.5,44-56,85.7-56l0,0l-6.2,24.6C514.8,338,546.8,330.3,589,330.3z"/>
		</g>
		<g>
			<path class="st1" d="M561.6,451.2c0-69,65.9-120.6,159-120.6c55.7,0,97.3,18.9,117.1,52.4l-0.4,0.1
				c-162.8,88.2-63.4,11.7-93.5,1.4c-8.3-2.9-17.7-4.2-28.2-4.2C671,380.2,638,408,638,448c0,28.2,21.8,46.3,60.6,46.3
				c11.2,0,21.7-1.6,31.2-4.9c28.7-9.8,61.4-8.6,87.9,4.5l0.5,0.3c-25.2,31.2-70.8,49.6-124,49.6C613.4,544,561.6,506.9,561.6,451.2
				z"/>
		</g>
		<g>
			<path class="st0" d="M827.6,451.2c0-69,65.9-120.6,159-120.6c55.7,0,97.3,18.9,117.1,52.4l-0.4,0.1
				c-29.4,11.7-63.4,11.7-93.5,1.4c-8.3-2.9-17.7-4.2-28.2-4.2C937,380.2,904,408,904,448c0,28.2,21.8,46.3,60.6,46.3
				c11.2,0,21.7-1.6,31.2-4.9c28.7-9.8,61.3-8.6,87.9,4.5l0.5,0.3c-25.2,31.2-70.8,49.8-124,49.8C879.3,544,827.6,506.9,827.6,451.2
				z"/>
		</g>
		<g>
			<path class="st1" d="M1498.6,333.5L1498.6,333.5l-37.2,148.8c-8.6,34.1-46,58.6-89.7,58.6l0,0l37.2-148.8
				C1417.5,358,1455,333.5,1498.6,333.5z"/>
		</g>
		<g>
			<path class="st1" d="M1770.8,402.5c0,7.7-1,16.2-3.4,25l-29,114.9l0,0c-39,0-68.3-28.5-60.6-58.9l13.2-52.1c1.5-5,2-10,2-14.3
				c0-21.2-14.6-33.2-44.6-33.2c-38.3,0-64.9,17-74.1,53.2l-11.5,46.3c-8.6,34.3-46.3,58.9-90.3,58.9l0,0l37.8-151.5
				c8.1-32.5,44-56,85.7-56l0,0l-5.7,22.3c23.7-17.3,53.7-25.5,85.7-25.5C1733.1,331.9,1770.8,356.5,1770.8,402.5z"/>
		</g>
		<g>
			<path class="st1" d="M1172.7,427.3c11.2-26.8,36.9-43.6,69.1-43.6c34.2,0,54.8,16.7,57.8,43.6h75.8
				c-2.3-60.1-52.4-99.1-129.3-99.1c-75.8,0-133.7,40.6-150.3,99.1H1172.7L1172.7,427.3z"/>
		</g>
		<g>
			<path class="st1" d="M1298.7,439.9c-10.4,28.9-36.8,47.3-70.2,47.3c-35.7,0-57-18.2-58.7-47.3h-75.5
				c0.5,61.8,51.4,102.7,129.3,102.7c77.7,0,136.2-42.3,151.2-102.7H1298.7z"/>
		</g>
		<g>
			<path d="M108.3,328.4"/>
		</g>
		<g>
			<g>
				<path class="st1" d="M1525,257.4c0-8.2,1.5-15.8,4.3-22.5c3-7.3,11.6-12.3,21.3-12.3l0,0c-7.9,11.2-11.2,22.3-11.2,34.8
					c0,12.5,3.3,23.7,11.2,34.8l0,0c-9.7,0-18.3-5-21.3-12.3C1526.5,273.2,1525,265.6,1525,257.4z"/>
			</g>
			<g>
				<path class="st1" d="M1596.5,266.6h-30.4l0,0c-3.5,6.8-11.7,11.2-21,11.2h-0.4l24.1-43c3-5.6,10-9.1,17.6-9.1h2.5l29.2,52.1
					h-0.8C1608.4,277.8,1600.1,273.4,1596.5,266.6L1596.5,266.6z M1591.9,257.5l-10.4-20l-10.4,20H1591.9z"/>
			</g>
			<g>
				<path class="st1" d="M1673.5,277.8c-7.8,0-15.3-3.2-19.7-8.2l-5.5-6.2h-0.8h-13.2v14.5l0,0c-8.3,0-15.1-5.4-15.1-12v-28.2
					c0-6.5,6.8-11.9,15-11.9h13.4c17.5,0,28.4,7.2,28.4,18.9c0,7.8-4.9,13.5-13.4,16.5l14.7,16.8L1673.5,277.8L1673.5,277.8
					L1673.5,277.8z M1646.7,235.6h-12.4v18.2h12.4c9.3,0,14-3.4,14-9.1C1660.6,238.9,1656,235.6,1646.7,235.6z"/>
			</g>
			<g>
				<path class="st1" d="M1678.1,251.7c0-15.7,15.1-26.9,35.5-26.9c5,0,9.7,0.6,13.8,1.8c7.6,2.2,9.3,10.1,3.3,14.5l0,0
					c-4.4-4-9.9-6.1-16.4-6.1c-12.3,0-21,6.9-21,16.7s8.7,16.7,21,16.7c3.1,0,6-0.5,8.7-1.5c5.9-2.1,12.8-1.1,17.5,2.4l0,0
					c-6.1,6-15.5,9.3-27,9.3C1693.2,278.7,1678.1,267.5,1678.1,251.7z"/>
			</g>
			<g>
				<path class="st1" d="M1738.1,292.2c8.1-11.2,11.4-22.3,11.4-34.8c0-12.5-3.3-23.7-11.4-34.8l0,0c9.8,0,18.4,5,21.4,12.4
					c2.9,6.8,4.3,14.4,4.3,22.5c0,8.2-1.5,15.8-4.3,22.5C1756.4,287.2,1747.8,292.2,1738.1,292.2L1738.1,292.2z"/>
			</g>
		</g>
		<g>
			<g>
				<path class="st1" d="M1768.9,188h-3.6c-3,0-5.2-1.8-5.2-4.2l0,0h19.2c3,0,5.2,1.8,5.2,4.2l0,0h-9v18.2l0,0
					c-3.5,0-6.5-2.3-6.5-5.2L1768.9,188L1768.9,188z"/>
			</g>
			<g>
				<path class="st1" d="M1811,206.2v-13.4l-8.3,11.1l0,0c-1.8,0-3.5-0.7-4.4-1.9l-6.8-8.8v13.2l0,0c-3.4,0-6.1-2.1-6.1-4.9v-13.3
					c0-2.3,2.5-4.3,5.4-4.3l0,0l10.6,13.9l7.6-10.2c1.7-2.2,4.8-3.7,8.1-3.7l0,0l0.1,17.5C1817.1,204,1814.4,206.2,1811,206.2
					L1811,206.2z"/>
			</g>
		</g>
	</g>
</g>
</svg>
