<?xml version="1.0" encoding="utf-8"?>
<!-- Generator: Adobe Illustrator 25.2.3, SVG Export Plug-In . SVG Version: 6.00 Build 0)  -->
<svg version="1.1" id="Layer_1" xmlns="http://www.w3.org/2000/svg" xmlns:xlink="http://www.w3.org/1999/xlink" x="0px" y="0px"
	 viewBox="0 0 1920 760" style="enable-background:new 0 0 1920 760;" xml:space="preserve">
<style type="text/css">
	.st0{fill:#FFFFFF;}
	.st1{fill:#D108F4;}
	.st2{fill:#FEFEFE;}
</style>
<g id="Layer_1_2_">
	<g>
		<path class="st0" d="M111.2,332.5l-2.8,17.3c-7.7-14-20.5-21.9-38-21.9C26.5,327.9,0,380.7,0,429.4c0,44.2,22.7,78.7,53.2,78.7
			c15,0,25.7-7.6,34.1-18.7l-2.2,14.2h33l20.5-131.1C114.1,368.1,111.2,332.5,111.2,332.5 M99.3,418.5
			c-2.4,26.8-16.9,46.7-35.6,46.7c-16.7,0-28.5-15.9-28.5-40.4c0-29.4,15.5-53.9,36.1-53.9C89.3,370.7,101.9,389.8,99.3,418.5"/>
		<path class="st0" d="M218,327.9c-12.6,0-25.4,5.2-35.8,22.6l2.5-15.3c-1.6,6.9-8.3,24.7-36.9,26l-22.2,142.4h34.1l14.2-91.1
			c4.7-27.7,17.8-40.7,33.7-40.7c6.4,0,13.4,2,18.3,5.5l11-44.4C230.8,329.8,224,327.9,218,327.9"/>
		<path class="st0" d="M290.5,371c3.3,0,6.8,0.5,10.6,2c15,6.5,31.1,5.7,44.8-4.9h0.1c-10.3-25.7-28.6-39.9-53.6-39.9
			c-42.4,0-72.1,45-72.1,98.5c0,46.5,24.6,81.1,61.5,81.1c20,0,38-11.1,50.8-31.1l-0.1-0.2c-10.9-14-26.2-17.7-40.8-12.9
			c-2.8,0.9-5.6,1.4-8.5,1.4c-15.9,0-27.9-16.9-27.9-41.3C255,394.9,270,371,290.5,371"/>
		<path class="st0" d="M425.8,327.9c-12.3,0-24.3,4.8-34.4,19.1l14.1-90.4c0.6-3.5-2.8-5.7-4.4-2.9c-6.4,11.4-16.5,22-33,23.7
			l-35.3,226.3c10,0,19.2-4.8,26.5-12.8c7.3-8,12.6-19.4,14.7-32.5l7.3-46.5c4.7-29.9,18-40.5,32.3-40.5s19.6,10.9,19.6,25.1
			c0,3.7-0.2,7.4-0.9,11.2l-15.2,96.1c10,0,19.2-4.6,26.4-12.6c7.3-8,12.6-19.3,14.7-32.5l8.6-54.7c1-6.5,1.4-12.8,1.4-18.7
			C468.2,351.7,452.1,327.9,425.8,327.9"/>
		<path class="st0" d="M491.6,345.3c-7.3,8-12.7,19.4-14.7,32.5l-19.7,125.9c10,0,19.2-4.8,26.5-12.8c7.4-8,12.6-19.4,14.7-32.5
			l19.7-125.9C508.1,332.5,498.8,337.2,491.6,345.3"/>
		<path class="st0" d="M620.9,483.9c-8.6-14.8-22.7-21.7-36.2-17.1c-4,1.4-8.2,2-12.5,2c-13.4,0-22.8-7.4-26.8-21.1h-34.8
			c4.4,35.6,25.3,60.2,58.8,60.2C590.9,508.1,607.2,500.4,620.9,483.9 M582.1,327.9c-51.5,0-72.5,62.1-72.5,105.2v0.2h121.1
			c2.7-8.9,5-24,5-35.8C635.8,355,613.8,327.9,582.1,327.9 M603.1,401.8h-55.8c4.9-17.7,14.7-34.2,32.9-34.2
			C594.8,367.6,604.1,379.2,603.1,401.8L603.1,401.8"/>
		<path class="st1" d="M523,253.3l-8.1-7.2c-33.9-29.1-64.5-34-102.1-35c-37.7-1.2-74.1,8.9-108.4,24.5
			c-34.5,15.3-67.1,36.4-98.6,60.2c-15.6,11.9-30.7,25.4-45.6,39c-7.6,6.2-15.8,11.9-24.6,13.2c-4.3,0.6-8.8,0.3-12.8-1.8
			c-4-2.2-10.1-9.9-11.9-14.5l-1,8.2c6.1,11.1,17.2,11.7,26,9.9c9-2.2,17.2-7.2,25-13.7c15.1-13.2,30.5-25.4,46.5-36.4
			c31.6-22.4,65.3-39.6,99.7-51.1c34.4-10.9,70.1-15.6,103.8-7.9c16.9,3.5,33,10.8,47.9,20.5c10.3,7.1,17.1,15.3,26.2,25.3
			c3.9,4.3,7,9.5,11.2,13.1c4.5,3.9,8.3,6.5,13.4,6.5c12.7,0,22.5-13.7,21.7-31.1C530.9,265.6,528.1,258.5,523,253.3"/>
	</g>
	<g>
		<path class="st1" d="M1864.2,263.8h-10l0,0c0-4.3,2.6-8,5.9-8h21.2l0,0c0,4.3-2.6,8-5.9,8h-4.1v24.5c0,5.4-3.2,9.7-7.1,9.7l0,0
			V263.8L1864.2,263.8z"/>
		<path class="st1" d="M1913.4,298v-25.3l-8.3,18.9c-0.6,1.2-1.5,1.8-2.5,1.8l0,0c-1,0-1.9-0.8-2.5-1.8l-8.3-18.5v24.8l0,0
			c-3.7,0-6.7-4.2-6.7-9.1v-33l0,0c3.6,0,7.1,2.6,9,6.9l8.5,19.3l8.4-19.3c1.8-4.3,5.2-6.9,8.8-6.9l0,0l0.1,33
			C1920.1,293.8,1917.2,298,1913.4,298L1913.4,298z"/>
	</g>
	<path class="st1" d="M636.4,491.5c6.5-20.5,12.9-41,19.3-61.5c22.1-70.6,44.2-141.1,66.4-211.9c0.5-1.5,1-2.2,2.4-2.2
		c12.6,0.2,25.3,0.2,37.9,0c1.6,0,2,1.1,2.6,2.6c11.2,36.4,22.6,72.9,33.8,109.2c1.6,5.1,3.1,10,4.5,15.1
		c-13.5,4.6-26.7,10.2-39.7,16.8c-6.9-23.4-13.8-46.7-20.9-70.7c-0.3,1.1-0.5,1.4-0.6,1.7c-9.1,31-18.3,61.8-27.3,92.7
		c-1.1,3.9-2.6,7.6-3.2,11.7h0.1c-0.5-0.3-0.3,0.3-0.5,0.5c-0.3,0.3-0.7,0.6-0.9,0.9c-28.6,25.1-53,56.1-72.8,93.5
		C637.3,490.9,637.1,491.6,636.4,491.5z"/>
	<path class="st1" d="M763.7,359.9c12.9-6.6,26.2-12.3,39.7-16.8c15.2-4.8,30.5-8.5,46.1-10.3c7.4-0.9,14.7-1.7,22.2-1.1
		c-1.8,0.8-3.6,1.7-5.4,2.5c-48.8,21.4-93.3,53.5-133.8,96c-17.9,18.8-34.6,39.6-49.8,62.2c-0.9,1.4-1.9,1.8-3.2,1.8
		c-13.8,0-27.6-0.2-41.4,0c-1.7,0-2.4-0.5-1.5-2.8c0.7,0.2,0.9-0.6,1.2-1.2c19.8-37.6,44.2-68.6,72.8-93.5c0.3-0.3,0.7-0.6,0.9-0.9
		c0.1-0.2,0.2-0.3,0.5-0.5h-0.1c4.4-3.5,8.8-7.1,13.4-10.6C737.5,375.1,750.4,367.1,763.7,359.9z"/>
	<path class="st1" d="M818.9,391.5c10.4,33.3,20.9,66.4,31.3,99.8c0.5,1.4-0.3,2.8-1.4,2.8l0,0c-14.1,0-28.2,0-42.3,0
		c-1.8,0-2.5-0.8-3.2-2.9c-4.8-16-9.5-31.9-14.3-47.9c0.2-0.5,0.5-0.8,0.7-1.2c5.4-11.7,11.3-23,17.8-33.7
		C811.2,402.6,814.7,396.6,818.9,391.5z"/>
	<path class="st1" d="M818.9,391.5c-4.2,5.1-7.7,11.1-11.2,16.9c-6.5,10.6-12.4,21.9-17.8,33.7c-0.2,0.5-0.5,0.8-0.7,1.2
		c-4-13.1-7.9-26.3-12-39.5c-0.6-1.7,0.2-2.2,1-2.8c10.3-8.3,20.8-16.3,31.5-23.6c11.7-7.9,23.7-15.1,35.8-21.4
		c0.9-0.5,1.8-1.2,2.9-0.9c0,1.2-0.8,1.4-1.2,1.8c-9.6,9.7-18.6,20.3-26.9,32.1C819.8,389.8,819.4,390.7,818.9,391.5z"/>
	<path class="st2" d="M721.4,395.6c-0.1,0.2-0.2,0.3-0.5,0.5C721,395.9,721,395.5,721.4,395.6z"/>
	<g>
		<path class="st0" d="M942.4,336.9c17.3,0,31.4,19.1,31.4,42.7v86.6c0,57.8-22.9,84.3-64.2,84.3c-21.7,0-42.8-7.2-56.1-21.4
			l0.2-0.6c6.5-15.9,20.2-23.3,33-18.2c6.6,2.6,13.5,4,20.3,4c23.4,0,33.6-14.5,33.6-42.5v-6.6c-8.7,12.9-21.2,19.4-36.2,19.4
			c-31.6,0-57.2-29.7-57.2-75s25.5-75,57.2-75c16,0,29.1,7.2,37.9,22.2L942.4,336.9L942.4,336.9z M941.2,409.7
			c0-22.8-12.6-38.1-29.9-38.1c-17.5,0-30.2,15.3-30.2,38.1c0,22.8,12.7,38.1,30.2,38.1C928.6,447.9,941.2,432.5,941.2,409.7z"/>
		<path class="st0" d="M1077.5,336.9c17.3,0,31.4,19.1,31.4,42.7v86.6c0,57.8-22.9,84.3-64.2,84.3c-21.7,0-42.8-7.2-56.1-21.4
			l0.2-0.6c6.5-15.9,20.2-23.3,33-18.2c6.6,2.6,13.5,4,20.3,4c23.4,0,33.6-14.5,33.6-42.5v-6.6c-8.7,12.9-21.2,19.4-36.2,19.4
			c-31.6,0-57.2-29.7-57.2-75s25.5-75,57.2-75c16,0,29.1,7.2,37.9,22.2L1077.5,336.9L1077.5,336.9z M1076.3,409.7
			c0-22.8-12.6-38.1-29.9-38.1c-17.5,0-30.2,15.3-30.2,38.1c0,22.8,12.8,38.1,30.2,38.1C1063.8,447.9,1076.3,432.5,1076.3,409.7z"/>
		<path class="st0" d="M1189.8,341.6v24.2c0,5.5-3.3,9.9-7.4,9.9c0,0,0,0-0.1,0c-18.3,0-30.4,13.6-30.4,43.3v28.4
			c0,25-14.9,45-33.1,45l0,0V379.9c0-23.7,14.2-43,31.6-43l0,0v20.5c7.3-13.6,18.9-21.1,34.1-22.6
			C1187.4,334.6,1189.8,337.7,1189.8,341.6z"/>
		<path class="st0" d="M1307.6,427.4h-81.5c3.2,19.4,15.3,31.1,32.8,31.1c5.4,0,10.2-0.9,14.5-3.1c10.4-4.9,22-0.5,29.5,10.6
			l2.4,3.4c-10.7,16.5-26.5,25.1-47.2,25.1c-39.6,0-65.3-33.7-65.3-80c0-46.5,26.2-80,61-80c33.6,0,59.5,30.7,59.5,80.6
			c0,1.5-0.1,3.4-0.2,5.2C1312.9,424.3,1310.5,427.4,1307.6,427.4z M1225.6,401h56.4c-2.4-19.6-13.2-32.4-28-32.4
			C1238.9,368.7,1228,381.2,1225.6,401z"/>
		<path class="st0" d="M1416.5,336.9c17.3,0,31.4,19.1,31.4,42.7v86.6c0,57.8-22.9,84.3-64.2,84.3c-21.7,0-42.8-7.2-56.1-21.4
			l0.2-0.6c6.5-15.9,20.2-23.3,33-18.2c6.6,2.6,13.5,4,20.3,4c23.4,0,33.6-14.5,33.6-42.5v-6.6c-8.7,12.9-21.2,19.4-36.2,19.4
			c-31.6,0-57.2-29.7-57.2-75s25.5-75,57.2-75c16,0,29.1,7.2,37.9,22.2v-19.7L1416.5,336.9L1416.5,336.9z M1415.2,409.7
			c0-22.8-12.6-38.1-29.9-38.1c-17.5,0-30.2,15.3-30.2,38.1c0,22.8,12.7,38.1,30.2,38.1C1402.7,447.9,1415.2,432.5,1415.2,409.7z"/>
		<path class="st0" d="M1566.2,403.7v46.5c0,23.3-14,42.2-31.1,42.2l0,0V473c-6.1,14.2-18,21.7-34.8,21.7
			c-26.8,0-42.8-20.2-42.8-47.1c0-27.4,14.3-46.5,49.1-46.5h26.3c0-19.4-8.5-30.7-26.3-30.7c-4.7,0-9.3,0.8-13.8,2.3
			c-12.4,4.2-25.2-4-31-19.4l0,0c12.6-12.2,31.1-18.8,49.3-18.8C1546,334.6,1566.2,356.5,1566.2,403.7z M1533.1,443.2v-15.9h-22.8
			c-15.5,0-20.4,7.9-20.4,18.2c0,11.2,7,18.8,18.7,18.8C1519.7,464.4,1529.3,457.4,1533.1,443.2z"/>
		<path class="st0" d="M1652.8,456.8c5.1,18-4.7,37.7-18.8,37.7c-0.1,0-0.2,0-0.3,0c-27,0-42.8-18.8-42.8-55.8V375h-17.7v-10.6
			c0-13.2,7.9-24,17.7-24l0,0l0,0c0-21,12.5-37.9,27.9-37.9h5.3v37.9h28.5l0,0c0,19.1-11.5,34.7-25.5,34.7h-2.9v63.3
			c0,13.2,5.3,20.5,14.3,20.5c4.9,0,9.8-2,13.4-5.7L1652.8,456.8z"/>
		<path class="st0" d="M1655.3,414.6c0-46.8,26.5-80,62.9-80c36.4,0,62.7,33.3,62.7,80c0,46.8-26.3,80-62.7,80
			C1681.8,494.7,1655.3,461.4,1655.3,414.6z M1747.4,414.6c0-26.8-12.6-43-29.1-43s-29.4,16.2-29.4,43s12.7,43,29.4,43
			C1734.8,457.7,1747.4,441.6,1747.4,414.6z"/>
		<path class="st0" d="M1862.1,341.6V369c0,3.9-2.4,6.9-5.2,6.8c-0.7,0-1.5,0-2.3,0c-18.3,0-30.4,13.6-30.4,43.3v28.3
			c0,25-14.9,45-33.1,45l0,0V380.1c0-23.7,14.2-43,31.6-43l0,0v20.5c7.3-13.6,18.9-21.1,34-22.6
			C1859.8,334.6,1862.1,337.7,1862.1,341.6z"/>
	</g>
</g>
</svg>
