<?xml version="1.0" encoding="utf-8"?>
<!-- Generator: Adobe Illustrator 25.2.3, SVG Export Plug-In . SVG Version: 6.00 Build 0)  -->
<svg version="1.1" id="Layer_1" xmlns="http://www.w3.org/2000/svg" xmlns:xlink="http://www.w3.org/1999/xlink" x="0px" y="0px"
	 viewBox="0 0 1920 760" style="enable-background:new 0 0 1920 760;" xml:space="preserve">
<style type="text/css">
	.st0{fill:#B94C07;}
	.st1{fill:#FFFFFF;}
	.st2{font-family:'ArialMT';}
	.st3{font-size:68.235px;}
	.st4{letter-spacing:-1.06;}
	.st5{fill:#962404;}
</style>
<g id="Layer_1_2_">
	<rect x="54.94" y="534.96" class="st0" width="279.75" height="7.95"/>
	<rect x="1553.37" y="534.96" class="st0" width="279.75" height="7.95"/>
	<g>
		<path class="st1" d="M168.41,312.21l-3.24,15.52c-8.8-12.54-23.39-19.61-43.31-19.61c-49.79,0-80.13,47.56-80.13,91.38
			c0,39.86,25.82,70.77,60.56,70.77c17.02,0,29.29-6.83,38.79-16.89l-2.43,12.79h37.63l23.39-117.96
			C171.77,344.25,168.41,312.21,168.41,312.21 M154.87,389.57c-2.66,24.08-19.22,41.97-40.64,41.97
			c-18.99,0-32.42-14.28-32.42-36.26c0-26.44,17.6-48.43,40.99-48.43C143.4,346.61,157.76,363.86,154.87,389.57"/>
		<path class="st1" d="M290.11,308.11c-14.36,0-28.95,4.72-40.87,20.36l2.89-13.66c-1.74,6.21-9.49,22.1-41.92,23.46l-25.36,127.89
			h38.79l16.1-81.94c5.33-24.95,20.26-36.63,38.33-36.63c7.18,0,15.28,1.87,20.84,4.96l12.51-39.86
			C304.7,309.85,297.06,308.11,290.11,308.11"/>
		<path class="st1" d="M372.78,346.85c3.71,0,7.76,0.38,12.04,1.87c17.02,5.83,35.43,5.09,50.95-4.34h0.12
			c-11.81-23.22-32.54-35.88-61.14-35.88c-48.28,0-82.21,40.35-82.21,88.53c0,41.84,28.02,72.89,70.05,72.89
			c22.69,0,43.31-9.93,57.89-27.93l-0.23-0.25c-12.39-12.54-29.87-16.02-46.43-11.67c-3.24,0.87-6.37,1.24-9.73,1.24
			c-18.06,0-31.84-15.15-31.84-37.12C332.26,368.46,349.28,346.85,372.78,346.85"/>
		<path class="st1" d="M526.78,308.11c-13.89,0-27.67,4.23-39.14,17.25l15.98-81.33c0.58-3.1-3.24-5.09-5.09-2.61
			c-7.18,10.31-18.76,19.74-37.63,21.23l-40.18,203.51c11.35,0,21.88-4.23,30.22-11.55c8.34-7.21,14.36-17.38,16.79-29.31
			l8.22-41.84c5.33-26.95,20.61-36.5,36.82-36.5c16.21,0,22.35,9.81,22.35,22.48c0,3.36-0.23,6.7-1.04,10.18l-17.25,86.42
			c11.35,0,21.77-4.23,30.11-11.42c8.34-7.21,14.36-17.25,16.79-29.18l9.84-49.17c1.16-5.83,1.62-11.55,1.62-16.76
			C575.07,329.59,556.77,308.11,526.78,308.11"/>
		<path class="st1" d="M601.7,323.76c-8.34,7.21-14.47,17.38-16.79,29.31l-22.46,113.11c11.35,0,21.88-4.23,30.22-11.55
			c8.34-7.21,14.36-17.38,16.79-29.31l22.46-113.11C620.57,312.21,610.03,316.56,601.7,323.76"/>
		<path class="st1" d="M748.98,448.42c-9.73-13.29-25.94-19.5-41.22-15.27c-4.52,1.24-9.26,1.87-14.24,1.87
			c-15.28,0-25.94-6.7-30.45-18.87h-39.72c5.09,31.91,28.83,54.13,66.93,54.13C714.82,470.27,733.35,463.32,748.98,448.42
			 M704.87,308.11c-58.71,0-82.56,55.75-82.56,94.61v0.25h138.02c3.13-7.95,5.67-21.73,5.67-32.16
			C766,332.45,740.99,308.11,704.87,308.11 M728.72,374.54h-63.57c5.44-15.89,16.79-30.8,37.52-30.8
			C719.22,343.87,729.76,354.31,728.72,374.54L728.72,374.54"/>
		<path class="st0" d="M637.48,241.07l-9.15-6.46c-38.67-26.2-73.53-30.67-116.25-31.54c-42.84-1-84.29,8.07-123.43,21.97
			c-39.37,13.66-76.42,32.78-112.2,54.13c-17.83,10.68-34.97,22.85-51.87,35.01c-8.57,5.59-17.95,10.68-28.02,11.92
			c-4.98,0.49-10.07,0.25-14.71-1.62c-4.52-1.87-11.46-8.94-13.66-13.04l-1.16,7.32c7.06,10.06,19.57,10.55,29.64,8.81
			c10.19-1.98,19.68-6.58,28.37-12.29c17.25-11.92,34.74-22.85,52.92-32.78c36.13-20.12,74.45-35.63,113.59-46.07
			c39.14-9.81,79.78-14.03,118.22-7.08c19.22,3.23,37.63,9.68,54.54,18.38c11.81,6.34,19.57,13.66,29.87,22.85
			c4.28,3.85,7.99,8.7,12.85,11.8c5.21,3.36,9.49,5.72,15.28,5.72c14.47,0,25.47-12.29,24.66-28.06
			C646.51,252.11,643.27,245.79,637.48,241.07"/>
	</g>
	<text transform="matrix(0.944 0 0 1 357.7822 558.8438)" class="st1 st2 st3 st4">WITH PASSIVE INCOME TO HOLDERS</text>
	<g>
		<polygon class="st5" points="804.21,312.21 804.21,312.21 804.79,312.96 		"/>
		<path class="st1" d="M960.41,403.47h54.65c7.29,0,13.08-6.34,13.08-14.03l0,0c0-7.82-5.91-14.03-13.08-14.03h-54.65V341.4h76.77
			l0,0c0-16.02-12.16-29.05-27.09-29.05h-48.52c-19.11,0-34.74,16.64-34.74,37.25v81.08c0,21.1,15.98,38.12,35.55,38.12h77.35l0,0
			c0-16.02-12.16-29.05-27.09-29.05H960.3v-36.26h0.11V403.47z"/>
		<path class="st1" d="M1184.47,312.21L1184.47,312.21c-23.97,0-46.89,10.55-63.34,29.18l-38.79,43.96v-37.12
			c0-19.87-15.05-36.01-33.58-36.01l0,0v120.56c0,19.87,15.05,36.01,33.58,36.01l0,0v-39.61l19.57-21.85l21.77,28.69
			c15.75,20.74,39.37,32.78,64.26,32.78l0,0l-64.03-86.8L1184.47,312.21z"/>
		<path class="st1" d="M1245.83,309.48c-46.08,0-79.89,34.39-79.89,80.95c0,46.56,33.81,80.95,79.89,80.95
			c45.85,0,79.89-34.14,79.89-80.95C1325.61,343.74,1291.69,309.48,1245.83,309.48z M1245.83,440.6
			c-26.05,0-45.62-20.36-45.62-50.04c0-29.67,19.57-50.04,45.62-50.04s45.62,20.36,45.62,50.04
			C1291.46,420.23,1271.89,440.6,1245.83,440.6z"/>
		<path class="st0" d="M869.63,443.2l-63.45-127.02c-1.27-2.61-3.94-3.98-6.6-3.6c-13.2,2.36-23.39,14.65-23.39,29.55v126.53
			c18.41,0,33.35-16.02,33.35-35.76v-59.23l55.58,72.64C867.2,449.04,871.14,446.18,869.63,443.2z"/>
		<path class="st0" d="M879.71,310.84v94.99l0,0l-58.94-77.23c-1.51-1.98-4.52,0.13-3.36,2.36l65.88,132.24
			c1.27,2.61,4.05,4.23,6.83,3.72c13.08-2.49,22.93-14.65,22.93-29.31v-91.01C913.06,326.87,898.12,310.84,879.71,310.84z"/>
	</g>
	<g>
		<path class="st0" d="M1512.85,321.28v115.47c0,20.86-15.75,37.75-35.2,37.75l0,0l-92.28-120.56v75.12
			c0,25.08-18.99,45.32-42.26,45.32l0,0V313.94c0-20.99,15.86-37.99,35.43-37.99l0,0l92.05,120.56V275.95l0,0
			C1493.86,275.95,1512.85,296.31,1512.85,321.28z"/>
		<path class="st0" d="M1564.02,312.83v52.52h85.68l0,0c0,20.36-15.4,36.88-34.39,36.88h-51.29v72.26l0,0
			c-23.62,0-42.84-20.61-42.84-45.94v-96.6c0-30.92,23.39-55.88,52.11-55.88h87.77l0,0c0,20.36-15.4,36.88-34.39,36.88h-62.64v-0.13
			H1564.02z"/>
		<path class="st0" d="M1726.82,313.45h-24.32c-19.34,0-34.85-16.76-34.85-37.37l0,0h126.44c19.34,0,34.85,16.76,34.85,37.37l0,0
			h-59.28v161.04l0,0c-23.62,0-42.84-20.61-42.84-45.94L1726.82,313.45L1726.82,313.45z"/>
	</g>
	<polygon class="st0" points="1825.01,227.53 1847.01,227.53 1847.01,234.48 1839.6,234.48 1839.6,257.21 1832.54,257.21 
		1832.54,234.48 1825.01,234.48 	"/>
	<polygon class="st0" points="1863.92,243.17 1868.78,227.53 1878.74,227.53 1878.74,257.21 1872.02,257.21 1872.02,241.31 
		1867.05,257.21 1860.33,257.21 1855,241.81 1855,257.21 1848.75,257.21 1848.75,227.53 1858.71,227.53 	"/>
</g>
</svg>
