<?xml version="1.0" encoding="utf-8"?>
<!-- Generator: Adobe Illustrator 25.2.3, SVG Export Plug-In . SVG Version: 6.00 Build 0)  -->
<svg version="1.1" id="Layer_1" xmlns="http://www.w3.org/2000/svg" xmlns:xlink="http://www.w3.org/1999/xlink" x="0px" y="0px"
	 viewBox="0 0 1920 760" style="enable-background:new 0 0 1920 760;" xml:space="preserve">
<style type="text/css">
	.st0{fill:#FFFFFF;}
	.st1{fill:#EA6F00;}
	.st2{font-family:'ArialMT';}
	.st3{font-size:48.9187px;}
</style>
<g id="Layer_1_1_">
	<g>
		<path class="st0" d="M200.23,325.6l-3.87,17.86c-10.86-14.43-28.87-22.62-53.27-22.62c-61.45,0-98.8,54.61-98.8,105.05
			c0,45.83,31.84,81.39,74.55,81.39c20.98,0,36.16-7.89,47.91-19.34l-3.12,14.58h46.28l28.87-135.55
			C204.39,362.5,200.23,325.6,200.23,325.6 M183.56,414.43c-3.27,27.68-23.66,48.21-50,48.21c-23.36,0-40.03-16.37-40.03-41.66
			c0-30.35,21.72-55.65,50.59-55.65C169.42,365.18,187.13,384.97,183.56,414.43"/>
		<path class="st0" d="M350.21,320.83c-17.71,0-35.56,5.51-50.29,23.36l3.57-15.77c-2.23,7.14-11.76,25.44-51.63,26.93
			l-31.25,147.01h47.91l19.94-94.19c6.55-28.72,25-42.11,47.32-42.11c8.78,0,18.75,2.08,25.74,5.65l15.47-45.83
			C368.22,322.92,358.84,320.83,350.21,320.83"/>
		<path class="st0" d="M452.14,365.47c4.61,0,9.67,0.45,14.88,2.08c20.98,6.7,43.75,5.95,62.79-5.06h0.15
			c-14.58-26.63-40.03-41.22-75.44-41.22c-59.52,0-101.33,46.42-101.33,101.78c0,48.06,34.52,83.77,86.3,83.77
			c27.97,0,53.27-11.46,71.27-32.14l-0.15-0.15c-15.33-14.43-36.75-18.3-57.29-13.39c-3.87,1.04-7.89,1.49-12.05,1.49
			c-22.32,0-39.28-17.41-39.28-42.7C402.14,390.17,423.27,365.47,452.14,365.47"/>
		<path class="st0" d="M642.01,320.83c-17.11,0-34.07,4.91-48.21,19.79l19.64-93.44c0.74-3.57-3.87-5.95-6.25-2.98
			c-8.78,11.76-23.21,22.77-46.28,24.4l-49.7,233.91c13.99,0,26.93-4.91,37.2-13.24s17.71-19.94,20.68-33.63l10.12-48.06
			c6.55-30.95,25.3-41.96,45.38-41.96s27.53,11.31,27.53,25.89c0,3.87-0.3,7.59-1.34,11.76l-21.28,99.25
			c13.99,0,26.93-4.76,37.2-13.09s17.71-19.94,20.68-33.48l12.05-56.54c1.34-6.7,1.93-13.24,1.93-19.19
			C701.52,345.54,678.91,320.83,642.01,320.83"/>
		<path class="st0" d="M734.26,338.84c-10.27,8.33-17.86,19.94-20.68,33.63L685.9,502.52c13.99,0,26.93-4.91,37.2-13.24
			s17.71-19.94,20.68-33.63l27.68-130.05C757.47,325.6,744.53,330.51,734.26,338.84"/>
		<path class="st0" d="M915.79,482.13c-12.05-15.33-31.99-22.32-50.74-17.56c-5.65,1.49-11.46,2.08-17.56,2.08
			c-18.75,0-31.99-7.59-37.65-21.72h-48.95c6.25,36.75,35.56,62.2,82.43,62.2C873.83,507.28,896.6,499.24,915.79,482.13
			 M861.48,320.83c-72.32,0-101.78,64.13-101.78,108.77v0.15h170.08c3.87-9.23,6.99-24.85,6.99-36.9
			C936.77,348.96,905.97,320.83,861.48,320.83 M890.79,397.32h-78.27c6.84-18.3,20.68-35.41,46.28-35.41
			C879.19,361.9,892.13,373.96,890.79,397.32L890.79,397.32"/>
		<path class="st1" d="M778.3,243.91l-11.16-7.44c-47.62-30.06-90.62-35.26-143.29-36.16c-52.82-1.19-104.01,9.23-152.22,25.3
			c-48.51,15.77-94.19,37.65-138.23,62.2c-22.02,12.2-43.15,26.19-63.98,40.18c-10.56,6.4-22.02,12.35-34.52,13.69
			c-6.1,0.6-12.35,0.3-18-1.93c-5.51-2.08-14.14-10.27-16.81-15.03l-1.49,8.48c8.63,11.46,24.11,12.2,36.46,10.12
			c12.5-2.23,24.25-7.59,34.97-14.14c21.13-13.69,42.85-26.34,65.32-37.65c44.49-23.21,91.81-40.92,140.02-52.82
			c48.21-11.16,98.35-16.07,145.82-8.18c23.66,3.72,46.42,11.16,67.26,21.13c14.58,7.29,24.11,15.77,36.75,26.19
			c5.36,4.46,9.82,9.97,15.77,13.54c6.4,3.87,11.61,6.55,18.75,6.55c17.86,0,31.4-14.14,30.35-32.29
			C789.46,256.55,785.59,249.26,778.3,243.91"/>
	</g>
	<path class="st1" d="M939.45,430.8c0-61.9,47.02-108.32,113.53-108.32c39.88,0,69.64,16.96,83.77,47.02l0,0
		c-21.43,10.71-45.98,9.67-68.15,0.89c-5.65-2.23-12.05-3.27-19.05-3.27c-31.84,0-55.35,24.85-55.35,60.86
		c0,25.3,15.62,41.51,43.3,41.51c8.48,0,16.37-1.64,23.51-4.91c19.94-9.23,43.3-6.7,61.9,4.91l0,0
		c-18,27.97-50.59,44.64-88.53,44.64C976.35,514.12,939.45,480.94,939.45,430.8z"/>
	<path class="st0" d="M1334.36,386.16c0,6.99-0.74,14.14-2.38,22.17l-20.83,103.12l0,0c-27.97,0-48.81-25.59-43.3-52.97l9.37-46.72
		c1.04-4.46,1.34-8.93,1.34-12.8c0-19.05-10.42-29.76-31.84-29.76c-27.38,0-46.28,15.18-52.97,47.76l-8.18,41.51
		c-6.1,30.8-33.03,52.97-64.43,52.97l0,0l40.62-203.85c6.1-30.8,33.18-52.97,64.58-52.97l0,0l-17.26,87.49
		c16.22-13.54,36.31-19.79,57.44-19.79C1306.98,322.47,1334.36,344.64,1334.36,386.16z"/>
	<path class="st0" d="M1551.31,378.27l-19.34,97.61c-4.17,20.68-22.32,35.71-43.45,35.71h-14.88l3.42-18.3
		c-14.88,13.54-34.22,21.13-57.14,21.13c-43.3,0-80.35-30.5-80.35-83.33c0-62.64,45.38-108.32,102.82-108.32
		c26.93,0,48.51,8.63,60.56,27.97l4.91-25.3l0,0C1535.83,325.3,1556.66,350.89,1551.31,378.27z M1491.19,408.33
		c0-25.3-15.62-41.22-42.56-41.22c-31.84,0-54.61,24.85-54.61,61.3c0,25.3,15.62,41.22,42.56,41.22
		C1468.43,469.63,1491.19,444.63,1491.19,408.33z"/>
	<path class="st0" d="M1574.67,325.3L1574.67,325.3c27.82,0,48.66,25.44,43.15,52.67l-26.49,133.47l0,0
		c-27.82,0-48.66-25.44-43.15-52.67L1574.67,325.3z"/>
	<path class="st0" d="M1817.35,385.86c0,6.99-0.74,14.58-2.38,22.47l-20.83,103.12l0,0c-27.97,0-48.81-25.59-43.3-52.97l9.37-46.72
		c1.04-4.46,1.34-8.93,1.34-12.8c0-19.05-10.42-29.76-31.84-29.76c-27.38,0-46.28,15.18-52.97,47.76l-8.18,41.51
		c-6.1,30.8-33.03,52.97-64.43,52.97l0,0l27.08-135.85c5.8-29.16,31.4-50.29,61.16-50.29l0,0l-4.17,20.09
		c16.96-15.62,38.39-22.91,61.16-22.91C1790.42,322.47,1817.35,344.64,1817.35,385.86z"/>
	<text transform="matrix(1 0 0 1 1815.0706 291.553)" class="st1 st2 st3">TM</text>
</g>
</svg>
