<?xml version="1.0" encoding="utf-8"?>
<!-- Generator: Adobe Illustrator 24.0.0, SVG Export Plug-In . SVG Version: 6.00 Build 0)  -->
<svg version="1.1" id="图层_1" xmlns="http://www.w3.org/2000/svg" xmlns:xlink="http://www.w3.org/1999/xlink" x="0px" y="0px"
	 viewBox="0 0 652 652" style="enable-background:new 0 0 652 652;" xml:space="preserve">
<path d="M376.4,297.1c0,0-7.1,30.1-4.3,65.3c2.9,36.5,17,57.6,17,57.6c24.2-19,39.8-49,39.8-82.7c0-38.9-20.6-74-54-92.1
	c0,0-1.7,8.1-5.6,15.3L376.4,297.1L376.4,297.1z M226.4,337.4c0,33.9,15.8,64,40.3,83.1c0,0,13.7-24,16.4-58
	c2.9-35.6-4.3-65.3-4.3-65.3l7.2-36.6c-3.9-7-5.6-15.2-5.6-15.2C247,263.5,226.4,298.5,226.4,337.4L226.4,337.4z M243.9,415.2
	l-17.1,9.6c9.8,0.7,29.5,5.4,46.2,13.5C260.3,431.4,249.7,421.9,243.9,415.2L243.9,415.2z M236.4,412.4l3.5-2
	c-3.4-4.3-6.3-8.2-9.1-12.9l-30.2,8.1C207.4,410.7,221.6,418.7,236.4,412.4z M217.9,394.7l9.8-2.7c-2.5-4.8-4.6-9.3-6.4-14.4
	l-46.3,5.7C180.9,389.7,195,400.6,217.9,394.7L217.9,394.7z M109.3,262.4c3,8,12.7,26.3,39.5,26.3h56.7c-1.4-11.3,0-21.1,1-26.3
	H109.3z M158.6,321h56.7c0.2-1.1,0.4-2.7,0.6-3.8c-4.8-6.4-8.2-16.2-9.4-22.5h-87.5C122,302.7,131.8,321,158.6,321L158.6,321z
	 M175.9,349.5l38.8-1.1c-0.6-6.3-0.8-14.2,0-21.3h-81.8C137.3,334.7,149.6,350.3,175.9,349.5L175.9,349.5z M195.4,374.7l23.9-2.9
	c-1.7-5.7-3-11.3-3.9-17.4c-5.6,0.2-63.2,1.9-63.2,1.9C157.3,363.7,170.4,377.7,195.4,374.7L195.4,374.7z M124,288.6
	c-13.7-7.8-19.3-20.9-21.1-26.3H22.6c3.8,8.2,15,26.3,39.8,26.3L124,288.6L124,288.6z M123.6,321h10.2
	c-13.7-7.8-19.3-20.9-21.1-26.3H35.9c5.1,8.4,18.7,26.3,41.2,26.3H123.6L123.6,321z M149.6,350.3c-14.3-6.9-21.3-18.6-23.6-23.3
	H56.6c5.6,8.1,20,24.7,43.4,24.7C100.2,351.8,149.6,350.3,149.6,350.3L149.6,350.3z M144.6,380.9l25.5-3.1
	c-14.6-5.7-22.4-16.9-24.9-21.3l-61.3,1.8C92.3,367.1,113.5,384.7,144.6,380.9L144.6,380.9z M182.2,404.4l11.9-3.2
	c-14.6-3.5-23.4-13.1-26.4-16.9l-44.7,5.5C133.2,397.2,156.6,411.3,182.2,404.4z M221.3,420.7c-13.6-1.3-24.3-9.8-28-13l-9.5,2.6
	c0,0-16.7,4.5-16.7,4.5C178.3,420.2,201.9,429,221.3,420.7L221.3,420.7z M410.5,415.2c-5.8,6.7-16.4,16.2-29.1,23.2
	c16.8-8.1,36.4-12.9,46.2-13.5L410.5,415.2z M453.9,405.7l-30.2-8.1c-2.8,4.8-5.6,8.6-9.1,12.9l3.5,2
	C432.8,418.7,447,410.8,453.9,405.7z M479.5,383.4l-46.3-5.7c-1.8,5.1-4,9.6-6.4,14.4l9.8,2.7C459.4,400.6,473.5,389.7,479.5,383.4
	L479.5,383.4z M545.1,262.4h-97.2c1.1,5.2,2.4,14.9,1,26.3h56.7C532.4,288.6,542.1,270.4,545.1,262.4L545.1,262.4z M535.4,294.7
	h-87.5c-1.3,6.3-4.7,16.1-9.4,22.5c0.2,1.1,0.5,2.7,0.6,3.8h56.7C522.7,321,532.4,302.7,535.4,294.7z M521.6,327.1h-81.8
	c0.5,4.6,0.6,16.2,0,21.3l38.8,1.1C504.8,350.3,517.1,334.7,521.6,327.1L521.6,327.1z M502.2,356.3c0,0-57.6-1.7-63.2-1.9
	c-0.8,6-2.2,11.6-3.9,17.4l23.9,2.9C484,377.7,497.2,363.7,502.2,356.3L502.2,356.3z M530.4,288.6H592c24.8,0,36-18,39.8-26.3h-80.3
	C549.7,267.7,544.2,280.8,530.4,288.6L530.4,288.6z M520.7,321h56.6c22.5,0,36.1-17.8,41.2-26.3h-76.7
	C540,300.1,534.4,313.2,520.7,321L520.7,321z M504.8,350.3c0,0,49.3,1.5,49.6,1.5c23.4,0,37.7-16.6,43.4-24.7h-69.4
	C526.1,331.7,519.1,343.4,504.8,350.3z M484.3,377.8l25.5,3.1c31.1,3.7,52.2-13.9,60.6-22.6l-61.3-1.8
	C506.7,360.9,498.9,372.1,484.3,377.8L484.3,377.8z M460.3,401.1l11.9,3.2c25.5,6.9,48.9-7.1,59.1-14.7l-44.7-5.5
	C483.7,388,474.9,397.6,460.3,401.1z M433.2,420.7c19.4,8.3,42.9-0.6,54.2-6l-26.2-7.1C457.5,410.9,446.7,419.4,433.2,420.7
	L433.2,420.7z M367.8,302.1c-7.5,3.6-20.1,13.4-24.1,38.8c-3.9,25-0.6,46.4,3.2,57.9c-0.3-10.3,0.4-26.6,3.5-40.9
	C355.9,333.1,363.8,312.1,367.8,302.1L367.8,302.1z"/>
<path d="M356.1,437.3c9.9-3,19.3-7.5,27.7-13.3c0,0-15.2-25-17.8-61c-1-14.5-0.7-27.9,0.2-38.8c-3.3,9.9-6.9,22-9.8,35.1
	c-6.8,30.9-1.2,56.7-1.2,57L356.1,437.3L356.1,437.3z M311.4,340.9c-4-25.5-16.6-35.2-24.1-38.8c4.1,10,11.9,31.1,17.4,55.8
	c3.1,14.3,3.8,30.6,3.5,40.9C312,387.3,315.3,365.9,311.4,340.9L311.4,340.9z M289.9,294.1c13.2,0.1,39.8-0.5,52.9-5.7
	c10.2-4.1,13.4-7.5,12.2-19.8c-1.3-13-12.6-25.4-15.5-28.4c-2.6-0.3-9.2-0.9-11.9-0.9c-1.9,0-5.6,0.3-8.6,0.6
	c1.2,4.2,1.4,11.2-3.8,22.3C309.2,275.3,297.3,287.4,289.9,294.1L289.9,294.1z"/>
<path d="M286.6,230.2c-0.1,0.2-0.3,0.6-0.5,1.4c-3.1,12.7,6.2,27.9,6.2,27.9l-5.8,29.4c7-6.5,17.8-17.7,23.1-29.3
	c5.4-11.7,3.9-17.4,2.9-19.4c-4.2-0.2-15.6-1.6-24.7-9.3C287.4,230.5,286.8,229.9,286.6,230.2L286.6,230.2z M298.8,359.2
	c-2.9-13.1-6.5-25.2-9.8-35.1c0.9,10.9,1.2,24.3,0.2,38.8c-2.3,34.1-17.5,61.2-17.5,61.2c8.3,5.7,17.5,10.1,27.2,13.1l1-21.1
	C300,415.9,305.5,390.1,298.8,359.2L298.8,359.2z"/>
<path d="M349.2,420.4c-0.1-0.6-0.4-2-0.7-4.2c-3-4.4-17.7-31.6-10.8-76.3c5.2-33.5,24.5-42.8,32-45.2l-6.9-35.3
	c0,0,9.2-14.6,6.2-27.9c-0.2-0.8-0.4-1.2-0.5-1.4c-0.2-0.4-0.8,0.3-1.3,0.7c-6.7,5.6-14.6,7.9-20,8.8c5,5.9,12.7,16.7,13.8,28.3
	c1.6,16-4.2,21.3-16,26c-12.3,4.9-34.5,6-49.1,6.2c8.3,6,18,17.5,21.4,39.7c7,44.7-7.7,71.9-10.8,76.3c-0.3,2.1-0.6,3.6-0.7,4.2
	l-0.4,14.6c12,10.5,32.7,10.1,44.1,0L349.2,420.4L349.2,420.4z M48.1,256.3h166.3c0,0-9.5,25.4,3.3,52.3
	c7.1-27.3,22.8-49.7,45.5-65.8c-0.5-2-2-5.8-6.3-9c-5-3.7-13.5-3.8-13.5-3.8h-228C19,238.2,29,256.2,48.1,256.3L48.1,256.3z
	 M639,230H411c-0.1,0-8.6,0.1-13.5,3.8c-4.3,3.2-5.8,6.9-6.3,9c22.6,16.1,38.3,38.6,45.5,65.8c12.8-26.2,3.3-52.3,3.3-52.3h166.3
	C625.4,256.2,635.5,238.2,639,230L639,230z M262.4,184.6h-20.1v-32.8h-7.7v39.5h27.8 M311.2,184.6h-19.8v-10.3h16.6V168h-16.6v-9.5
	h19.3v-6.7h-26.9v39.5h27.4 M351.9,191.3l15.4-39.5h-8.1l-10.6,29.9L338,151.8h-8.1l15.5,39.5 M389.8,185.2c1.7,1.9,3.7,3.5,6,4.6
	c2.3,1.2,4.9,1.8,7.7,1.8c1.6,0,3.2-0.2,4.9-0.6c1.7-0.4,3.2-1,4.7-1.8c1.5-0.8,2.8-1.7,4-2.9c1.2-1.1,2.1-2.4,2.7-3.9l-6.3-3.6
	c-0.4,1.1-1,2-1.8,2.8c-0.7,0.8-1.5,1.4-2.4,1.9c-0.9,0.5-1.8,0.8-2.8,1.1c-1,0.2-1.9,0.3-2.8,0.3c-1.7,0-3.3-0.4-4.7-1.1
	c-1.4-0.7-2.7-1.7-3.7-2.9c-1-1.2-1.8-2.6-2.4-4.3c-0.6-1.6-0.8-3.3-0.8-5c0-1.6,0.2-3.1,0.7-4.7c0.5-1.6,1.2-3,2.1-4.2
	c0.9-1.2,2.1-2.3,3.6-3c1.4-0.8,3.1-1.2,5-1.2c0.9,0,1.8,0.1,2.7,0.3c0.9,0.2,1.8,0.5,2.7,1c0.9,0.4,1.7,1,2.4,1.8
	c0.7,0.8,1.4,1.7,1.9,2.8l5.9-4.1c-1.3-2.6-3.3-4.6-5.9-6.2c-2.6-1.6-5.8-2.4-9.4-2.4c-3.1,0-5.8,0.6-8.2,1.7
	c-2.4,1.2-4.5,2.7-6.1,4.5c-1.7,1.9-2.9,4-3.8,6.3c-0.9,2.4-1.3,4.7-1.3,7.2c0,2.5,0.5,5,1.4,7.4
	C386.8,181.1,388.1,183.3,389.8,185.2L389.8,185.2z M184.7,483.3c-0.6-0.6-1.2-1.1-2-1.5c-0.8-0.4-1.6-0.6-2.5-0.6h-8.4V501h3.8
	v-6.6h4.7c0.9,0,1.7-0.2,2.5-0.6c0.8-0.4,1.4-0.9,1.9-1.5c0.5-0.6,1-1.3,1.3-2.1c0.3-0.8,0.4-1.6,0.4-2.4c0-0.8-0.2-1.6-0.5-2.4
	C185.7,484.7,185.2,484,184.7,483.3L184.7,483.3z M181.8,490.2c-0.5,0.6-1.1,0.9-1.8,0.9h-4.5v-6.4h4.3c0.3,0,0.7,0.1,1,0.2
	c0.3,0.1,0.6,0.3,0.8,0.6c0.2,0.3,0.4,0.6,0.6,1c0.2,0.4,0.2,0.8,0.2,1.3C182.5,488.8,182.3,489.6,181.8,490.2L181.8,490.2z
	 M201.3,492.5h8.3v-3.1h-8.3v-4.8h9.6v-3.4h-13.5V501h13.7v-3.4h-9.9 M237.6,484.3c-0.8-0.9-1.8-1.7-3-2.3c-1.2-0.6-2.5-0.9-3.9-0.9
	c-1.4,0-2.7,0.3-3.9,0.8c-1.2,0.5-2.2,1.3-3.1,2.2c-0.9,0.9-1.5,2-2,3.2c-0.5,1.2-0.7,2.5-0.7,3.8c0,1.3,0.2,2.5,0.7,3.7
	c0.5,1.2,1.1,2.3,2,3.2c0.8,0.9,1.9,1.7,3,2.3c1.2,0.6,2.5,0.8,3.9,0.8c1.4,0,2.7-0.3,3.9-0.8c1.2-0.5,2.2-1.3,3.1-2.2
	c0.9-0.9,1.5-2,2-3.2c0.5-1.2,0.7-2.5,0.7-3.8c0-1.2-0.2-2.5-0.7-3.7C239,486.3,238.4,485.2,237.6,484.3L237.6,484.3z M236,493.5
	c-0.3,0.8-0.6,1.5-1.1,2.1c-0.5,0.6-1.1,1.1-1.8,1.5c-0.7,0.4-1.5,0.6-2.5,0.6c-0.9,0-1.7-0.2-2.4-0.6c-0.7-0.4-1.3-0.9-1.8-1.5
	s-0.9-1.3-1.1-2.1c-0.3-0.8-0.4-1.6-0.4-2.5c0-0.8,0.1-1.6,0.4-2.4c0.3-0.8,0.6-1.5,1.1-2.1c0.5-0.6,1.1-1.1,1.8-1.5
	c0.7-0.4,1.5-0.6,2.5-0.6c0.9,0,1.7,0.2,2.4,0.5c0.7,0.4,1.3,0.8,1.8,1.5c0.5,0.6,0.9,1.3,1.1,2.1c0.3,0.8,0.4,1.6,0.4,2.5
	C236.3,492,236.2,492.8,236,493.5L236,493.5z M264.4,483.3c-0.6-0.6-1.2-1.1-2-1.5c-0.8-0.4-1.6-0.6-2.5-0.6h-8.4V501h3.8v-6.6h4.7
	c0.9,0,1.7-0.2,2.5-0.6c0.8-0.4,1.4-0.9,1.9-1.5c0.5-0.6,1-1.3,1.3-2.1c0.3-0.8,0.4-1.6,0.4-2.4c0-0.8-0.2-1.6-0.5-2.4
	S264.9,484,264.4,483.3L264.4,483.3z M261.6,490.2c-0.5,0.6-1.1,0.9-1.8,0.9h-4.5v-6.4h4.3c0.3,0,0.7,0.1,1,0.2
	c0.3,0.1,0.6,0.3,0.8,0.6c0.2,0.3,0.4,0.6,0.6,1c0.2,0.4,0.2,0.8,0.2,1.3C262.3,488.8,262,489.6,261.6,490.2L261.6,490.2z
	 M281,481.3h-3.8V501h13.9v-3.4H281 M305.6,492.5h8.3v-3.1h-8.3v-4.8h9.6v-3.4h-13.5V501h13.7v-3.4h-9.9 M356.3,484.2
	c-0.8-0.9-1.8-1.6-3-2.1c-1.2-0.5-2.6-0.8-4.2-0.8h-7.2V501h7.2c1.5,0,2.8-0.2,4-0.7c1.2-0.5,2.2-1.1,3.1-2c0.9-0.9,1.5-1.9,2-3.1
	c0.5-1.2,0.7-2.6,0.7-4.1c0-1.4-0.2-2.6-0.6-3.8C357.8,486.1,357.2,485,356.3,484.2L356.3,484.2z M354.5,493.7
	c-0.3,0.8-0.6,1.5-1.1,2.1c-0.5,0.6-1.1,1-1.8,1.4c-0.7,0.3-1.6,0.5-2.5,0.5h-3.3v-13h3.3c0.9,0,1.8,0.2,2.5,0.5
	c0.7,0.3,1.4,0.8,1.9,1.3c0.5,0.6,0.9,1.3,1.1,2.1c0.3,0.8,0.4,1.7,0.4,2.6C354.9,492,354.8,492.9,354.5,493.7L354.5,493.7z
	 M384.2,491.3c0.6-1,1-2.2,1-3.5c0-0.8-0.2-1.6-0.5-2.4c-0.3-0.8-0.8-1.5-1.3-2.1c-0.6-0.6-1.2-1.1-2-1.5c-0.8-0.4-1.6-0.6-2.5-0.6
	h-8.7V501h3.8v-6.6h3.8l4,6.6h4.3l-4.5-7.4C382.7,493.1,383.6,492.4,384.2,491.3L384.2,491.3z M381.1,489.1c-0.1,0.4-0.3,0.7-0.5,1
	c-0.2,0.3-0.5,0.5-0.8,0.7c-0.3,0.2-0.6,0.3-1,0.3H374v-6.4h4.6c0.3,0,0.7,0.1,1,0.2c0.3,0.2,0.6,0.4,0.9,0.7c0.2,0.3,0.4,0.6,0.6,1
	c0.2,0.4,0.2,0.8,0.2,1.3C381.3,488.3,381.2,488.7,381.1,489.1L381.1,489.1z M397,481.3h3.8V501H397L397,481.3z M420.7,496.2
	l-5.3-14.9h-4l7.8,19.8h3.2l7.7-19.8h-4 M444.3,492.5h8.3v-3.1h-8.3v-4.8h9.6v-3.4h-13.5V501h13.7v-3.4h-9.9 M478.8,494.2l-10.3-13
	h-3V501h3.8v-12.7l10.2,12.7h3.1v-19.7h-3.8"/>
</svg>
